<svg width="24" height="25" viewBox="0 0 24 25" fill="none" xmlns="http://www.w3.org/2000/svg">
<circle cx="12" cy="12.5" r="11.5" fill="white" stroke="#E27410"/>
<g clip-path="url(#clip0_33_1311)">
<path d="M8.44521 14.4768C9.6288 15.8916 11.0536 17.0056 12.6798 17.7938C13.2989 18.0872 14.1269 18.4353 15.0494 18.495C15.1066 18.4975 15.1613 18.5 15.2185 18.5C15.8377 18.5 16.335 18.2862 16.7403 17.846C16.7428 17.8436 16.7477 17.8386 16.7502 17.8336C16.8944 17.6596 17.0586 17.5029 17.2301 17.3363C17.347 17.2244 17.4663 17.1075 17.5807 16.9882C18.1104 16.4362 18.1104 15.735 17.5757 15.2004L16.0813 13.706C15.8277 13.4424 15.5244 13.3031 15.2061 13.3031C14.8878 13.3031 14.582 13.4424 14.3209 13.7035L13.4307 14.5937C13.3486 14.5464 13.2641 14.5041 13.1845 14.4644C13.0851 14.4146 12.9931 14.3674 12.911 14.3152C12.1004 13.8005 11.3644 13.1291 10.6607 12.2663C10.3051 11.8162 10.0664 11.4383 9.89983 11.0528C10.1336 10.8415 10.3524 10.6202 10.5637 10.4039C10.6383 10.3268 10.7154 10.2497 10.7925 10.1726C11.061 9.90406 11.2053 9.59324 11.2053 9.27746C11.2053 8.96167 11.0635 8.65085 10.7925 8.3823L10.0515 7.64132C9.96448 7.55429 9.88242 7.46975 9.79788 7.38272C9.63377 7.21363 9.4622 7.03958 9.29311 6.88293C9.037 6.63179 8.73613 6.5 8.41785 6.5C8.10207 6.5 7.79871 6.63179 7.53265 6.88541L6.60269 7.81538C6.26452 8.15354 6.07306 8.56382 6.03327 9.03875C5.98603 9.63303 6.09543 10.2646 6.3789 11.028C6.81404 12.2091 7.47049 13.3056 8.44521 14.4768ZM6.63998 9.09097C6.66982 8.76026 6.79664 8.48425 7.03534 8.24554L7.96033 7.32056C8.10455 7.18131 8.26369 7.1092 8.41785 7.1092C8.56953 7.1092 8.7237 7.18131 8.86543 7.32553C9.03203 7.47969 9.18868 7.64132 9.35776 7.81289C9.44231 7.89992 9.52933 7.98695 9.61636 8.07646L10.3573 8.81745C10.5115 8.97161 10.5911 9.12826 10.5911 9.28243C10.5911 9.43659 10.5115 9.59325 10.3573 9.74741C10.2803 9.82449 10.2032 9.90406 10.1261 9.98114C9.89485 10.2149 9.67853 10.4362 9.43982 10.6475C9.43485 10.6525 9.43236 10.655 9.42739 10.66C9.221 10.8663 9.25333 11.0628 9.30306 11.212C9.30555 11.2194 9.30803 11.2244 9.31052 11.2319C9.50198 11.6919 9.76804 12.1295 10.1833 12.6517C10.9293 13.5717 11.715 14.2853 12.5803 14.8349C12.6872 14.9045 12.8016 14.9592 12.9085 15.0139C13.008 15.0636 13.1 15.1109 13.182 15.1631C13.192 15.168 13.1995 15.173 13.2094 15.178C13.2915 15.2203 13.371 15.2402 13.4506 15.2402C13.6495 15.2402 13.7788 15.1133 13.8211 15.0711L14.751 14.1411C14.8953 13.9969 15.0519 13.9198 15.2061 13.9198C15.3951 13.9198 15.5492 14.0367 15.6462 14.1411L17.1456 15.638C17.444 15.9364 17.4415 16.2596 17.1381 16.5754C17.0337 16.6873 16.9243 16.7942 16.8074 16.9061C16.6334 17.0752 16.4518 17.2493 16.2877 17.4457C16.0018 17.754 15.6611 17.8983 15.221 17.8983C15.1787 17.8983 15.134 17.8958 15.0917 17.8933C14.2761 17.8411 13.5177 17.5228 12.9483 17.2518C11.4017 16.5033 10.044 15.4416 8.91765 14.0939C7.99017 12.9774 7.36605 11.938 6.95329 10.8241C6.69718 10.1403 6.6002 9.59076 6.63998 9.09097Z" fill="#E27410"/>
</g>
<defs>
<clipPath id="clip0_33_1311">
<rect width="12" height="12" fill="white" transform="translate(6 6.5)"/>
</clipPath>
</defs>
</svg>
