<svg width="12" height="12" viewBox="0 0 12 12" fill="none" xmlns="http://www.w3.org/2000/svg">
<g clip-path="url(#clip0_2440_2186)">
<path d="M2.44502 7.9768C3.62861 9.39163 5.05339 10.5056 6.67959 11.2938C7.29873 11.5872 8.12675 11.9354 9.04925 11.995C9.10644 11.9975 9.16114 12 9.21833 12C9.83748 12 10.3348 11.7862 10.7401 11.346C10.7426 11.3436 10.7476 11.3386 10.75 11.3336C10.8943 11.1596 11.0584 11.0029 11.2299 10.8363C11.3468 10.7244 11.4662 10.6075 11.5805 10.4882C12.1102 9.93618 12.1102 9.23498 11.5756 8.70038L10.0812 7.20597C9.82753 6.9424 9.52418 6.80315 9.2059 6.80315C8.88763 6.80315 8.58178 6.9424 8.3207 7.20349L7.43052 8.09366C7.34846 8.04642 7.26392 8.00415 7.18435 7.96436C7.08489 7.91463 6.99289 7.86739 6.91083 7.81517C6.10022 7.30046 5.36421 6.6291 4.66052 5.76627C4.30495 5.31621 4.06624 4.93825 3.89964 4.55284C4.13338 4.34149 4.35219 4.12019 4.56355 3.90386C4.63814 3.82678 4.71523 3.74969 4.79231 3.67261C5.06085 3.40407 5.20507 3.09325 5.20507 2.77746C5.20507 2.46167 5.06334 2.15085 4.79231 1.88231L4.05132 1.14132C3.96429 1.05429 3.88224 0.969751 3.7977 0.882722C3.63359 0.713638 3.46201 0.539581 3.29293 0.38293C3.03682 0.13179 2.73595 3.8147e-06 2.41767 3.8147e-06C2.10188 3.8147e-06 1.79853 0.13179 1.53247 0.385416L0.602504 1.31538C0.264336 1.65355 0.0728727 2.06382 0.0330882 2.53875C-0.0141559 3.13303 0.0952515 3.76461 0.378716 4.52798C0.813859 5.70908 1.4703 6.80564 2.44502 7.9768ZM0.639802 2.59097C0.66964 2.26026 0.796453 1.98426 1.03516 1.74555L1.96015 0.820559C2.10437 0.681313 2.26351 0.609204 2.41767 0.609204C2.56935 0.609204 2.72352 0.681313 2.86525 0.825532C3.03184 0.979697 3.1885 1.14132 3.35758 1.31289C3.44212 1.39992 3.52915 1.48695 3.61618 1.57646L4.35717 2.31745C4.51133 2.47162 4.5909 2.62827 4.5909 2.78243C4.5909 2.9366 4.51133 3.09325 4.35717 3.24741C4.28008 3.3245 4.203 3.40407 4.12592 3.48115C3.89467 3.71488 3.67834 3.93618 3.43964 4.14754C3.43466 4.15251 3.43218 4.155 3.4272 4.15997C3.22082 4.36635 3.25315 4.56279 3.30288 4.71198C3.30536 4.71944 3.30785 4.72441 3.31034 4.73187C3.5018 5.19188 3.76786 5.62951 4.18311 6.15168C4.92907 7.0717 5.71481 7.78533 6.58012 8.33486C6.68705 8.40448 6.80143 8.45918 6.90835 8.51389C7.00781 8.56362 7.09981 8.61086 7.18186 8.66308C7.19181 8.66805 7.19927 8.67303 7.20922 8.678C7.29127 8.72027 7.37084 8.74016 7.45041 8.74016C7.64933 8.74016 7.77863 8.61335 7.8209 8.57108L8.75087 7.64111C8.89509 7.4969 9.05174 7.41981 9.2059 7.41981C9.39488 7.41981 9.54904 7.53668 9.64602 7.64111L11.1454 9.13801C11.4438 9.43639 11.4413 9.75964 11.1379 10.0754C11.0335 10.1873 10.9241 10.2942 10.8072 10.4061C10.6332 10.5752 10.4517 10.7493 10.2875 10.9457C10.0016 11.254 9.66094 11.3983 9.22082 11.3983C9.17855 11.3983 9.13379 11.3958 9.09152 11.3933C8.27594 11.3411 7.51755 11.0228 6.94813 10.7518C5.40151 10.0033 4.04386 8.94157 2.91746 7.59387C1.98999 6.47742 1.36587 5.43805 0.953105 4.32408C0.696992 3.64029 0.600017 3.09076 0.639802 2.59097Z" fill="#E27410"/>
</g>
<defs>
<clipPath id="clip0_2440_2186">
<rect width="12" height="12" fill="white"/>
</clipPath>
</defs>
</svg>
