<svg width="74" height="80" viewBox="0 0 74 80" fill="none" xmlns="http://www.w3.org/2000/svg">
<path d="M34.3332 40.0002H39.6665C40.4029 40.0002 40.9999 39.4032 40.9999 38.6668C40.9999 37.9305 40.4029 37.3335 39.6665 37.3335H34.3332C33.5968 37.3335 32.9999 37.9305 32.9999 38.6668C32.9999 39.4032 33.5968 40.0002 34.3332 40.0002Z" fill="white"/>
<path d="M38.3333 41.3335H35.6666C34.9302 41.3335 34.3333 41.9304 34.3333 42.6668C34.3333 43.4032 34.9302 44.0002 35.6666 44.0002H38.3333C39.0696 44.0002 39.6666 43.4032 39.6666 42.6668C39.6666 41.9304 39.0696 41.3335 38.3333 41.3335Z" fill="white"/>
<path d="M35.6666 34.6667H38.3333C39.0696 34.6667 39.6666 34.0697 39.6666 33.3333C39.6666 32.597 39.0696 32 38.3333 32H35.6666C34.9302 32 34.3333 32.597 34.3333 33.3333C34.3333 34.0697 34.9302 34.6667 35.6666 34.6667Z" fill="white"/>
<path d="M6.69325 59.056C3.04792 62.6987 1.26659 72.1187 0.999921 77.2C0.963373 77.9301 1.2281 78.6431 1.73222 79.1725C2.23633 79.7018 2.93562 80.001 3.66659 80H70.3333C71.0642 80.001 71.7635 79.7018 72.2676 79.1725C72.7717 78.6431 73.0365 77.9301 72.9999 77.2C72.7333 72.1174 70.9559 62.6974 67.3106 59.0547C63.5493 55.2987 51.5919 51.7214 48.6613 50.892C47.8308 48.7654 47.3852 46.508 47.3453 44.2254L50.7266 41.2667C52.1729 39.9995 53.0016 38.1696 52.9999 36.2467V34.5334C56.099 33.9008 58.3269 31.1777 58.3333 28.0147C58.3273 27.7317 58.3037 27.4494 58.2626 27.1694L62.3959 25.5227C62.9315 25.3096 63.3501 24.8772 63.5457 24.3349C63.7412 23.7927 63.695 23.1926 63.4186 22.6867C62.4037 20.8262 61.0334 19.1831 59.3853 17.8507L61.0706 17.4254C62.0399 17.1845 62.6754 16.2562 62.5493 15.2654C62.1564 13.119 60.7431 11.2983 58.7613 10.3854L60.2493 9.39471C61.0266 8.86093 61.3301 7.85959 60.9799 6.98404C57.7226 -0.878628 45.6053 1.00804 43.8786 1.32137C39.4814 -0.42887 34.583 -0.440787 30.1773 1.28804C27.6426 0.868039 16.3973 -0.541295 13.2866 6.98671C12.9374 7.86886 13.2491 8.87517 14.0359 9.40537L15.5146 10.384C13.5253 11.2961 12.1074 13.1227 11.7173 15.276C11.6039 16.2698 12.2489 17.1922 13.2213 17.4267L14.8866 17.8467C13.2324 19.1843 11.857 20.8337 10.8386 22.7014C10.5694 23.2062 10.5276 23.8016 10.7234 24.3391C10.9193 24.8766 11.3344 25.3054 11.8653 25.5187L15.7466 27.0667C15.697 27.3799 15.6702 27.6963 15.6666 28.0134C15.6723 31.1768 17.9004 33.9007 20.9999 34.5334V36.248C21.0001 38.1706 21.8302 39.9995 23.2773 41.2654L26.6586 44.224C26.6187 46.5067 26.1731 48.7641 25.3426 50.8907C22.4119 51.7334 10.4546 55.3 6.69325 59.056ZM42.2186 77.3334L41.0373 64.3454L42.0253 62.8627C43.0779 63.7092 44.5996 63.6246 45.5519 62.6667L50.2746 57.9454L52.7973 61.4774L45.4786 77.3334H42.2186ZM28.5226 77.3334L21.2026 61.4667L23.7253 57.9347L28.4479 62.6667C29.4045 63.614 30.9171 63.6998 31.9746 62.8667L32.9626 64.348L31.7813 77.3334H28.5226ZM38.9533 62.6667H35.0466L33.9159 60.9694L36.9999 57.8854L40.0839 60.9694L38.9533 62.6667ZM35.5506 65.3334H38.4493L39.5399 77.3334H34.4666L35.5506 65.3334ZM47.5079 54.072L48.7079 55.7454L43.6666 60.7814L40.0213 57.136C42.7597 56.8565 45.3592 55.7926 47.5079 54.072ZM30.3333 60.7814L25.2973 55.7454L26.4973 54.072C28.6456 55.7936 31.2452 56.8584 33.9839 57.1387L30.3333 60.7814ZM3.66659 77.3414C3.97059 71.5107 5.93325 63.584 8.57725 60.9414C10.9479 58.572 18.0319 55.9587 22.9893 54.384L19.0333 59.924C18.4761 60.703 18.3794 61.7208 18.7799 62.5907L25.5853 77.3334H19.6666V74.6667C19.6666 73.9303 19.0696 73.3334 18.3333 73.3334C17.5969 73.3334 16.9999 73.9303 16.9999 74.6667V77.34L3.66659 77.3414ZM70.3333 77.3334H56.9999V74.6667C56.9999 73.9303 56.403 73.3334 55.6666 73.3334C54.9302 73.3334 54.3333 73.9303 54.3333 74.6667V77.3334H48.4159L55.2159 62.5934C55.6172 61.724 55.5215 60.7061 54.9653 59.9267L51.0106 54.3867C55.9679 55.9614 63.0519 58.5747 65.4226 60.944C68.0666 63.584 70.0293 71.5107 70.3333 77.3334ZM58.2786 7.50004L56.3053 8.81604C55.6939 9.22514 55.3565 9.9368 55.4267 10.669C55.4969 11.4012 55.9634 12.0358 56.6413 12.3214C57.98 12.7889 59.0897 13.7499 59.7439 15.008L57.3653 15.608C56.5764 15.7911 55.9758 16.4317 55.8439 17.2307C55.7102 18.0173 56.0639 18.8069 56.7399 19.2307C58.3514 20.2793 59.7055 21.678 60.7013 23.3227L57.3999 24.64C56.6907 23.4325 55.6171 22.4807 54.3333 21.9214V16C54.2801 11.082 51.9019 6.47939 47.9213 3.59071C51.4293 3.46671 56.4106 3.97471 58.2786 7.50004ZM51.6666 16V21.6254L47.5013 22.6667H40.9999C40.3472 22.669 39.7184 22.9126 39.2346 23.3507C37.8844 22.4386 36.1154 22.4386 34.7653 23.3507C34.2814 22.9126 33.6526 22.669 32.9999 22.6667H26.4986L22.3333 21.6254V16C22.3541 12.4092 23.8982 8.99595 26.5813 6.60937C29.4371 4.03548 33.1556 2.62831 36.9999 2.66671C45.0866 2.66671 51.6666 8.64804 51.6666 16ZM47.6666 25.3334V28C47.6666 28.7364 47.0696 29.3334 46.3333 29.3334H42.3333C41.5969 29.3334 40.9999 28.7364 40.9999 28V25.3334H47.6666ZM26.3333 25.3334H32.9999V28C32.9999 28.7364 32.403 29.3334 31.6666 29.3334H27.6666C26.9302 29.3334 26.3333 28.7364 26.3333 28V25.3334ZM13.5653 23.3254C14.5586 21.6837 15.9094 20.2873 17.5173 19.24C18.1911 18.8124 18.5463 18.0251 18.4208 17.2369C18.2953 16.4487 17.7133 15.8106 16.9399 15.6134L14.5173 15.0027C15.1831 13.7351 16.3106 12.7719 17.6666 12.312C18.3285 12.0175 18.7793 11.3881 18.8453 10.6667C18.9132 9.93043 18.5756 9.2154 17.9639 8.80004L15.9893 7.49204C17.8039 4.06537 22.5599 3.49204 26.0479 3.58004C25.6088 3.91071 25.1857 4.26271 24.7786 4.63604C21.5399 7.52753 19.6817 11.6584 19.6666 16V21.9214C18.4146 22.4682 17.3628 23.3896 16.6559 24.5587L13.5653 23.3254ZM23.6666 36.2467V33.3334C23.6666 32.597 23.0696 32 22.3333 32C20.1293 32 18.3406 30.2173 18.3333 28.0134C18.3339 27.5853 18.4041 27.1602 18.5413 26.7547C18.5413 26.744 18.5413 26.7334 18.5413 26.724C18.9767 25.4571 20.0215 24.4951 21.3199 24.1654C21.3373 24.1654 21.3506 24.148 21.3679 24.1427L23.6666 24.708V28C23.6666 30.2092 25.4574 32 27.6666 32H31.6666C33.8757 32 35.6666 30.2092 35.6666 28V26.6667C35.6666 25.9303 36.2635 25.3334 36.9999 25.3334C37.7363 25.3334 38.3333 25.9303 38.3333 26.6667V28C38.3333 30.2092 40.1241 32 42.3333 32H46.3333C48.5424 32 50.3333 30.2092 50.3333 28V24.708L52.6226 24.136C52.6399 24.136 52.6533 24.1547 52.6706 24.1587C54.6189 24.6565 55.8905 26.5286 55.6351 28.5232C55.3797 30.5178 53.6775 32.0092 51.6666 32C50.9302 32 50.3333 32.597 50.3333 33.3334V36.2467C50.3332 37.4004 49.835 38.4979 48.9666 39.2574L41.6333 45.6774C40.9042 46.3151 39.9685 46.6666 38.9999 46.6667H34.9999C34.0313 46.6666 33.0956 46.3151 32.3666 45.6774L25.0333 39.2574C24.1648 38.4979 23.6667 37.4004 23.6666 36.2467ZM30.6133 47.684C31.8277 48.7466 33.3863 49.3326 34.9999 49.3334H38.9999C40.6149 49.3336 42.1751 48.7475 43.3906 47.684L44.8253 46.428C45.0249 48.2515 45.4611 50.0412 46.1226 51.752C45.1439 52.7067 42.4773 54.6667 36.9999 54.6667C31.5226 54.6667 28.8466 52.7 27.8813 51.7534C28.5428 50.042 28.9789 48.2519 29.1786 46.428L30.6133 47.684Z" fill="white"/>
<path d="M32.9999 17.3335H26.3332C25.5968 17.3335 24.9999 17.9305 24.9999 18.6668C24.9999 19.4032 25.5968 20.0002 26.3332 20.0002H32.9999C33.7363 20.0002 34.3332 19.4032 34.3332 18.6668C34.3332 17.9305 33.7363 17.3335 32.9999 17.3335Z" fill="white"/>
<path d="M39.6666 18.6668C39.6666 19.4032 40.2636 20.0002 41 20.0002H47.6666C48.403 20.0002 49 19.4032 49 18.6668C49 17.9305 48.403 17.3335 47.6666 17.3335H41C40.2636 17.3335 39.6666 17.9305 39.6666 18.6668Z" fill="white"/>
<path d="M32.9998 13.3332H40.9998C41.7362 13.3332 42.3332 12.7362 42.3332 11.9998C42.3332 11.2635 41.7362 10.6665 40.9998 10.6665H32.9998C32.2635 10.6665 31.6665 11.2635 31.6665 11.9998C31.6665 12.7362 32.2635 13.3332 32.9998 13.3332Z" fill="white"/>
<path d="M32.9998 9.33317H35.6665C36.4029 9.33317 36.9998 8.73622 36.9998 7.99984C36.9998 7.26346 36.4029 6.6665 35.6665 6.6665H32.9998C32.2635 6.6665 31.6665 7.26346 31.6665 7.99984C31.6665 8.73622 32.2635 9.33317 32.9998 9.33317Z" fill="white"/>
</svg>
