<svg width="80" height="80" viewBox="0 0 80 80" fill="none" xmlns="http://www.w3.org/2000/svg">
<path d="M65.4644 2.84814H43.7769C43.6332 2.84806 43.491 2.8763 43.3582 2.93123C43.2255 2.98617 43.1049 3.06673 43.0033 3.16831C42.9017 3.26989 42.8212 3.3905 42.7662 3.52324C42.7113 3.65597 42.6831 3.79824 42.6831 3.94189V6.08189C41.924 6.22674 41.201 6.52053 40.556 6.9463C39.9109 7.37206 39.3566 7.92137 38.925 8.56252C32.9379 8.71832 27.2479 11.2043 23.0657 15.4914C18.8835 19.7785 16.5393 25.5284 16.5319 31.5175V48.6988L15.6438 52.7913H14.5356C14.2456 52.7913 13.9674 52.9065 13.7622 53.1116C13.5571 53.3167 13.4419 53.5949 13.4419 53.885V76.0581C13.4419 76.3482 13.5571 76.6264 13.7622 76.8315C13.9674 77.0367 14.2456 77.1519 14.5356 77.1519H25.0625C25.2062 77.152 25.3484 77.1237 25.4812 77.0688C25.6139 77.0139 25.7345 76.9333 25.8361 76.8317C25.9377 76.7301 26.0182 76.6095 26.0732 76.4768C26.1281 76.3441 26.1564 76.2018 26.1563 76.0581V53.885C26.1564 53.7414 26.1281 53.5991 26.0732 53.4664C26.0182 53.3336 25.9377 53.213 25.8361 53.1114C25.7345 53.0099 25.6139 52.9293 25.4812 52.8744C25.3484 52.8194 25.2062 52.7912 25.0625 52.7913H23.9569L23.0688 48.6988V31.4919C23.0743 27.2348 24.7327 23.1461 27.6942 20.088C30.6557 17.0298 34.689 15.241 38.9438 15.0988C39.1056 15.3336 39.2847 15.556 39.4794 15.7644V20.2963C36.4947 20.5719 33.7203 21.9515 31.6991 24.1649C29.6779 26.3783 28.5554 29.2664 28.5513 32.2638V72.9331C28.5524 74.0517 28.9973 75.1241 29.7882 75.915C30.5791 76.7059 31.6515 77.1507 32.77 77.1519H54.7781C55.8967 77.1507 56.9691 76.7059 57.76 75.915C58.5509 75.1241 58.9957 74.0517 58.9969 72.9331V32.2638C58.9928 29.2662 57.8701 26.378 55.8486 24.1645C53.8272 21.9511 51.0525 20.5716 48.0675 20.2963V15.7644C48.8003 14.971 49.298 13.9894 49.505 12.9294C54.1201 13.0934 58.6476 14.2357 62.7881 16.2806C63.0418 16.4215 63.341 16.4559 63.6199 16.3762C63.8989 16.2965 64.1347 16.1093 64.2756 15.8556C64.4165 15.602 64.4509 15.3028 64.3712 15.0239C64.2915 14.7449 64.1043 14.509 63.8506 14.3681C60.9163 12.8722 57.773 11.8277 54.5269 11.27L65.7594 8.12502C65.9892 8.06044 66.1916 7.92254 66.3358 7.73232C66.48 7.5421 66.558 7.30997 66.5581 7.07127V3.94627C66.5587 3.80227 66.5308 3.65957 66.4761 3.52637C66.4214 3.39316 66.341 3.27207 66.2393 3.17004C66.1377 3.06801 66.017 2.98706 65.884 2.93182C65.751 2.87658 65.6084 2.84814 65.4644 2.84814ZM43.7769 8.16064C44.4996 8.16077 45.2061 8.3752 45.807 8.77682C46.4079 9.17844 46.8762 9.74922 47.1527 10.417C47.4291 11.0847 47.5014 11.8195 47.3603 12.5283C47.2193 13.2372 46.8712 13.8883 46.3601 14.3993C45.849 14.9103 45.1978 15.2583 44.489 15.3992C43.7801 15.5402 43.0454 15.4678 42.3777 15.1912C41.7099 14.9146 41.1392 14.4462 40.7377 13.8452C40.3362 13.2443 40.1219 12.5378 40.1219 11.815C40.1235 10.8468 40.5089 9.91876 41.1935 9.23414C41.8781 8.54952 42.8062 8.16417 43.7744 8.16252L43.7769 8.16064ZM41.6706 20.2394V17.2594C43.0241 17.7921 44.5291 17.7921 45.8825 17.2594V20.2413L41.6706 20.2394ZM23.9706 74.9644H15.6294V54.9788H23.9706V74.9644ZM17.8825 52.7913L18.5075 49.91H21.0931L21.7181 52.7913H17.8825ZM20.8825 31.4919V47.7225H18.7194V31.5175C18.7263 26.2636 20.7208 21.2068 24.3023 17.3628C27.8839 13.5188 32.7872 11.1723 38.0275 10.7944C37.8942 11.5101 37.9003 12.2448 38.0456 12.9581C33.3782 13.323 29.0197 15.4331 25.8386 18.868C22.6575 22.3029 20.8875 26.8103 20.8813 31.4919H20.8825ZM56.8125 32.2638V72.9331C56.8119 73.4717 56.5976 73.9879 56.2169 74.3687C55.8361 74.7495 55.3198 74.9637 54.7813 74.9644H32.77C32.2315 74.9637 31.7152 74.7495 31.3344 74.3687C30.9536 73.9879 30.7394 73.4717 30.7388 72.9331V32.2638C30.7417 29.6562 31.779 27.1562 33.6229 25.3124C35.4668 23.4687 37.9668 22.4316 40.5744 22.4288H46.9738C49.5819 22.4308 52.0827 23.4675 53.9273 25.3113C55.7719 27.1552 56.8095 29.6556 56.8125 32.2638ZM64.375 6.23939L49.4406 10.4231C49.1724 9.33855 48.5992 8.35341 47.789 7.58413C46.9787 6.81484 45.9652 6.29357 44.8681 6.08189V5.03564H64.3681L64.375 6.23939Z" fill="white"/>
<path d="M33.2101 38.772V58.6207C33.21 58.7644 33.2382 58.9066 33.2932 59.0394C33.3481 59.1721 33.4287 59.2927 33.5303 59.3943C33.6318 59.4959 33.7524 59.5765 33.8852 59.6314C34.0179 59.6863 34.1602 59.7146 34.3038 59.7145H53.2445C53.5345 59.7145 53.8127 59.5992 54.0179 59.3941C54.223 59.189 54.3382 58.9108 54.3382 58.6207V38.772C54.3382 38.4819 54.223 38.2037 54.0179 37.9986C53.8127 37.7935 53.5345 37.6782 53.2445 37.6782H34.307C34.163 37.6777 34.0204 37.7057 33.8873 37.7604C33.7542 37.8152 33.6333 37.8957 33.5314 37.9973C33.4294 38.0989 33.3486 38.2197 33.2935 38.3526C33.2383 38.4855 33.21 38.6281 33.2101 38.772ZM35.3976 39.8657H52.1507V57.527H35.4007L35.3976 39.8657Z" fill="white"/>
</svg>
