<svg width="532" height="557" viewBox="0 0 532 557" fill="none" xmlns="http://www.w3.org/2000/svg">
<g opacity="0.5" clip-path="url(#clip0_33_974)">
<path fill-rule="evenodd" clip-rule="evenodd" d="M123.098 553.948C125.333 551.786 126.056 551.045 128.364 549.222H121.458C122.908 550.786 123.145 552.511 123.098 553.948Z" fill="white"/>
<path fill-rule="evenodd" clip-rule="evenodd" d="M109.241 546.876C109.241 546.876 98.8544 538.35 97.3033 538.465C95.7494 538.586 93.0507 543.921 93.0507 543.921C93.0507 543.921 102.222 548.665 104.957 548.63C107.7 548.596 109.241 546.876 109.241 546.876Z" fill="white"/>
<path fill-rule="evenodd" clip-rule="evenodd" d="M119.322 557.783C121.83 556.708 120.542 549.331 117.632 549.222H111.991C111.991 549.222 109.302 552.206 105.114 552.206C100.921 552.206 90.8552 546.566 90.8552 546.566L86.5905 548.975C86.5905 548.975 83.4976 553.207 84.41 555.529C85.3253 557.858 92.5297 560.095 93.9655 560.083C101.999 560.02 116.818 558.858 119.322 557.783Z" fill="white"/>
<path fill-rule="evenodd" clip-rule="evenodd" d="M467.333 533.992C467.654 530.117 458.656 521.044 458.656 521.044L450.464 519.076C450.464 519.076 453.974 524.442 454.145 530.134C454.317 535.821 452.304 541.576 452.304 541.576C456.229 541.139 467.013 537.862 467.333 533.992Z" fill="white"/>
<path fill-rule="evenodd" clip-rule="evenodd" d="M349.761 563.44C341.434 553.269 333.065 547.646 324.898 540.137C315.98 531.933 307.529 524.2 299.582 517.448L299.027 525.286C321.502 539.378 344.029 574.939 344.781 625.915C350.684 615.473 357.588 604.153 357.733 590.026C357.817 581.959 354.489 569.063 349.761 563.44Z" fill="white"/>
<path fill-rule="evenodd" clip-rule="evenodd" d="M434.51 537.193C438.355 536.435 438.61 530.035 436.182 525.016C434.522 521.572 429.427 514.017 429.427 514.017L409.791 509.295C409.689 510.462 409.627 511.635 409.627 512.829C409.627 516.73 410.518 521.474 411.606 525.028C419.669 524.844 430.665 537.952 434.51 537.193Z" fill="white"/>
<path fill-rule="evenodd" clip-rule="evenodd" d="M138.786 500.946C141.055 500.206 144.723 498.181 146.716 495.895C153.445 489.016 156.811 480.299 161.466 472.209C165.858 464.593 170.38 456.802 176.97 449.764C160.376 457.901 146.543 466.473 138.322 481.36C137.153 483.421 134.588 488.727 132.607 491.479C130.693 494.143 124.236 500.176 124.236 500.176C124.236 500.176 126.004 500.987 128.36 501.531C130.718 502.078 135.937 501.877 138.786 500.946Z" fill="white"/>
<path fill-rule="evenodd" clip-rule="evenodd" d="M187.811 441.376C174.375 442.8 162.729 445.26 153.412 449.686C152.907 451.137 149.454 461.003 148.178 464.743C156.767 455.631 171.825 448.049 185.097 442.486C185.263 442.418 187.071 441.673 187.811 441.376Z" fill="white"/>
<path fill-rule="evenodd" clip-rule="evenodd" d="M189.017 460.303C180.283 468.616 167.514 484.658 163.893 497.801C161.101 507.914 164.31 515.014 168.705 518.471C172.76 521.665 178.604 521.958 178.604 521.958C177.36 519.023 174.534 513.631 173.135 508.007C172.06 503.662 170.876 499.568 173.012 491.799C174.81 485.273 189.017 460.303 189.017 460.303Z" fill="white"/>
<path fill-rule="evenodd" clip-rule="evenodd" d="M410.329 436.437C411.03 432.93 412.265 409.536 412.179 401.006L391.869 404.702C391.489 411.154 390.239 423.216 390.239 423.216C392.293 433.364 401.215 458.953 402.17 461.71C405.786 456.157 408.25 446.83 410.329 436.437Z" fill="white"/>
<path fill-rule="evenodd" clip-rule="evenodd" d="M399.778 464.742C398.501 461.003 395.052 451.137 394.544 449.686C385.23 445.26 373.584 442.802 360.148 441.376C360.886 441.672 362.696 442.418 362.862 442.488C376.137 448.049 389.34 455.327 399.778 464.742Z" fill="white"/>
<path fill-rule="evenodd" clip-rule="evenodd" d="M368.979 521.959C368.979 521.959 374.825 521.666 378.88 518.471C383.276 515.016 386.485 507.914 383.695 497.802C380.072 484.657 367.302 468.616 358.568 460.303C358.568 460.303 372.776 485.272 374.573 491.801C376.712 499.57 375.528 503.664 374.448 508.007C373.054 513.631 370.225 519.025 368.979 521.959Z" fill="white"/>
<path fill-rule="evenodd" clip-rule="evenodd" d="M461.068 519.984C461.068 519.984 471.457 530.003 470.616 534.165C469.772 538.322 465.848 541.14 459.2 543.232C454.477 544.716 448.439 545.055 448.439 545.055C448.439 545.055 450.969 536.833 451.186 530.399C451.371 525.058 447.072 518.508 445.141 516.291C443.21 514.07 437.628 513.103 432.889 513.47C432.889 513.47 439.13 521.108 440.291 526.059C441.776 532.395 440.674 538.765 436.069 540.409C431.466 542.059 416.731 527.939 412.61 528.485C411.132 528.686 410.061 529.393 409.282 530.216C409.341 530.216 409.401 530.216 409.46 530.216C409.041 530.578 408.69 530.98 408.384 531.411C407.886 532.234 407.624 532.993 407.521 533.355C407.501 533.429 407.472 533.493 407.46 533.567C397.734 533.953 387.614 533.964 385.981 532.538C382.999 529.945 386.965 523.954 389.412 521.252C391.555 518.881 394.202 517.033 394.202 517.033C390.971 515.467 389.323 513.921 387.35 510.213C387.35 510.213 386.575 517.109 380.024 521.476C372.41 526.559 367.065 525.53 367.065 525.53C367.065 525.53 363.841 534.982 363.434 537.736C363.027 540.507 364.852 544.181 367.975 544.532C371.093 544.877 393.304 539.863 399.655 540.588C405.356 541.232 442.395 557.02 451.004 556.801C455.032 556.698 465.697 553.018 469.224 550.425C472.744 547.832 479.892 541.306 479.593 536.046C479.293 530.779 473.772 524.035 473.772 524.035C472.201 521.114 465.038 519.624 461.068 519.984Z" fill="white"/>
<path fill-rule="evenodd" clip-rule="evenodd" d="M482.063 532.457C483.005 530.997 483.923 529.088 484.65 527.294L478.438 525.799C479.846 527.214 482.063 532.457 482.063 532.457Z" fill="white"/>
<path fill-rule="evenodd" clip-rule="evenodd" d="M358.324 410.815L335.76 414.924L346.613 436.436C353.578 433.934 359.824 425.303 358.324 410.815Z" fill="white"/>
<path fill-rule="evenodd" clip-rule="evenodd" d="M212.199 414.923L189.363 410.764C187.777 425.461 194.319 433.988 201.341 436.51L212.199 414.923Z" fill="white"/>
<path fill-rule="evenodd" clip-rule="evenodd" d="M375.161 439.732C377.98 437.725 384.117 429.804 387.139 422.464C387.701 417.394 388.217 410.841 388.525 405.315L364.933 409.609C369.55 419.382 372.742 430.186 375.161 439.732Z" fill="white"/>
<path fill-rule="evenodd" clip-rule="evenodd" d="M422.366 479.461C422.499 479.349 422.64 479.228 422.763 479.133C426.727 476.131 431.233 473.805 436.117 472.33C436.941 469.514 437.646 466.566 438.265 463.54C442.197 444.175 441.985 420.884 438.993 398.791C438.941 398.424 438.707 396.868 438.608 396.194L415.462 400.409C415.627 408.222 415.094 417.421 414.286 427.844C413.962 431.941 412.951 439.364 413.255 441.761C415.075 454.33 417.581 463.976 420.94 474.567C421.387 475.994 421.873 477.682 422.366 479.461Z" fill="white"/>
<path fill-rule="evenodd" clip-rule="evenodd" d="M466.79 401.514C466.79 401.514 466.011 396.816 464.885 391.405L441.833 395.605C441.914 396.088 442.102 397.173 442.109 397.227C458.196 415.333 468.506 413.423 468.506 413.423C468.506 411.139 466.79 401.514 466.79 401.514Z" fill="white"/>
<path fill-rule="evenodd" clip-rule="evenodd" d="M467.59 438.846C467.59 437.456 467.59 436.065 467.571 434.705C467.445 426.404 467.006 422.39 466.488 416.67C458.748 415.47 453.906 412.556 442.769 402.337C444.368 415.827 446.183 438.081 442.039 461.592C441.467 464.83 440.789 468.087 439.977 471.353C442.12 470.912 444.333 470.643 446.585 470.537L448.879 460.906L449.663 459.958L452.517 456.488L448.386 458.005L447.189 458.446L447.416 457.199L450.685 439.201L450.912 437.949L451.878 438.787L455.235 441.689L453.82 437.469L453.428 436.309L454.639 436.53L467.59 438.846Z" fill="white"/>
<path fill-rule="evenodd" clip-rule="evenodd" d="M135.767 401.006C135.644 409.301 136.914 432.889 137.627 436.437C139.709 446.832 142.173 456.16 145.788 461.713C146.743 458.954 155.662 433.366 157.722 423.216C157.722 423.216 156.474 411.12 156.104 404.709L135.767 401.006Z" fill="white"/>
<path fill-rule="evenodd" clip-rule="evenodd" d="M130.313 489.3C131.788 486.932 134.499 481.428 135.952 478.929C138.774 473.986 140.683 471.567 144.718 467.475C144.718 467.475 141.487 462.579 140.401 458.768C135.049 463.831 131.815 470.166 129.243 478.206C128.313 481.1 123.446 496.353 123.446 496.353C124.48 495.331 128.458 492.29 130.313 489.3Z" fill="white"/>
<path fill-rule="evenodd" clip-rule="evenodd" d="M409.266 481.36C401.045 466.473 387.583 457.898 370.986 449.764C377.579 456.803 382.102 464.594 386.486 472.21C391.145 480.297 394.142 489.016 400.87 495.895C402.589 497.866 405.542 499.63 407.776 500.559C407.833 500.368 407.885 500.166 407.947 499.978C408.877 497.079 411.321 492.484 413.46 489.095C411.837 486.333 410.155 482.924 409.266 481.36Z" fill="white"/>
<path fill-rule="evenodd" clip-rule="evenodd" d="M457.205 439.722L460.19 449.079L452.896 442.859L450.788 454.475L459.805 451.324L453.525 459.364L465.675 461.542L462.656 451.831L469.94 458.016L472.066 446.331L463.053 449.604L469.114 441.859L457.205 439.722Z" fill="white"/>
<path fill-rule="evenodd" clip-rule="evenodd" d="M250.721 444.598C241.684 440.848 233.653 434.717 227.462 427.334C224.001 423.197 221.086 418.59 218.839 413.624C218.743 413.401 209.498 431.259 200.73 448.286L183.861 478.556L230.04 455.104L250.721 444.598Z" fill="white"/>
<path fill-rule="evenodd" clip-rule="evenodd" d="M157.599 508.24C163.782 479.154 181.973 461.424 193.418 452.173L196.045 447.112L199.316 440.598C195.201 442.013 191.013 443.559 186.822 445.301C186.776 445.321 186.736 445.34 186.692 445.36C176.054 453.543 170.334 463.401 164.325 473.838C159.626 481.992 155.668 491.081 148.276 498.482C146.413 500.403 144.092 501.567 140.945 503.241L138.555 519.842C138.555 519.842 156.208 514.786 157.599 508.24Z" fill="white"/>
<path fill-rule="evenodd" clip-rule="evenodd" d="M25.9989 436.035C25.1677 435.929 24.2452 435.621 23.3029 434.981C18.4414 437.664 13.0841 439.855 8.1189 440.941C6.65129 441.264 2.47296 441.678 2.39896 441.686C1.77246 450.047 1.40001 458.957 1.40001 468.613C-1.44885 514.145 10.5534 556.858 22.1486 589.964L32.2467 542.375L32.2146 542.381C25.1554 516.62 23.2216 483.569 25.9989 436.035Z" fill="white"/>
<path fill-rule="evenodd" clip-rule="evenodd" d="M413.008 379.712L436.504 384.17C433.296 368.057 428.868 354.155 425.005 350.947C419.67 350.68 414.769 349.962 411.225 346.877L411.131 349.133C409.266 349.133 407.369 349.079 405.485 348.945C408.825 361.016 411.437 371.851 413.008 379.712Z" fill="white"/>
<path fill-rule="evenodd" clip-rule="evenodd" d="M461.16 281.913C460.272 274.177 434.122 250.845 434.114 250.864C432.338 253.893 425.802 254.031 418.742 252.472C419.643 253.413 421.919 256.162 421.809 255.871C431.285 265.592 439.868 276.578 441.583 283.119C449.594 285.739 457.176 287.79 459.764 285.935C460.341 285.521 461.33 284.122 461.16 281.913Z" fill="white"/>
<path fill-rule="evenodd" clip-rule="evenodd" d="M486.535 348.075C486.301 347.401 484.738 343.257 484.01 341.355C475.52 318.898 468.118 300.829 457.398 289.863C453.657 290.074 448.442 288.794 441.304 286.478C440.897 287.556 440.162 288.439 439.119 289.084C437.029 290.365 433.835 290.544 429.894 289.696C438.874 297.651 441.649 303.684 444.848 309.301C450.312 318.876 454.517 332.824 456.318 340.341C464.146 345.497 471.914 350.079 486.535 348.075Z" fill="white"/>
<path fill-rule="evenodd" clip-rule="evenodd" d="M432.84 345.349C433.124 346.763 433.351 351.064 433.351 351.064C433.351 351.064 430.081 351.071 429.37 351.064C433.287 356.877 437.199 370.331 440.001 384.831L464.476 389.477C461.879 378.006 457.028 360.629 450.247 350.696C444.006 349.981 438.36 348.253 432.84 345.349Z" fill="white"/>
<path fill-rule="evenodd" clip-rule="evenodd" d="M448.16 390.509C448.16 390.509 330.21 367.642 330.277 367.824C332.504 374.124 334.297 382.005 334.297 388.972C334.297 396.844 332.983 404.365 330.215 411.258C330.183 411.344 448.16 390.509 448.16 390.509Z" fill="white"/>
<path fill-rule="evenodd" clip-rule="evenodd" d="M213.66 388.972C213.66 382.002 215.453 374.116 217.683 367.815C217.745 367.634 99.7917 390.508 99.7917 390.508C99.7917 390.508 217.774 411.343 217.74 411.257C214.972 404.364 213.66 396.843 213.66 388.972Z" fill="white"/>
<path fill-rule="evenodd" clip-rule="evenodd" d="M172.799 439.733C175.211 430.191 178.393 419.371 183.005 409.608L159.406 405.307C159.714 410.835 160.259 417.388 160.821 422.466C163.84 429.805 169.98 437.726 172.799 439.733Z" fill="white"/>
<path fill-rule="evenodd" clip-rule="evenodd" d="M109.299 396.186C109.206 396.884 109.028 398.325 108.966 398.79C105.974 420.883 105.759 444.174 109.692 463.541C110.345 466.545 111.265 471.142 112.634 475.051C115.197 482.376 121.523 493.254 121.523 493.254C122.707 489.152 124.932 479.999 126.646 474.564C130.003 463.974 132.882 454.329 134.702 441.76C135.006 439.363 133.994 431.94 133.671 427.845C132.855 417.322 132.31 408.306 132.492 400.408L109.299 396.186Z" fill="white"/>
<path fill-rule="evenodd" clip-rule="evenodd" d="M59.6171 419.422C61.0944 418.674 61.05 416.915 60.8506 415.628C60.51 413.435 59.5307 410.472 59.0275 409.229C56.4501 402.824 51.6378 398.829 50.0296 397.464C48.9098 396.516 46.7097 395.81 46.7097 395.81C45.7033 395.546 44.5884 395.607 43.6166 395.999C43.5623 396.021 43.5056 396.045 43.4489 396.072C42.7385 396.394 42.2748 396.775 41.8703 397.555C41.4633 398.334 40.9576 401.057 40.3065 401.65C40.1363 401.805 39.9834 401.907 39.8378 401.961C38.2001 402.62 38.1828 397.46 38.1606 397.364C38.5306 396.992 40.3953 396.261 41.192 395.33C41.6409 394.703 43.2811 392.575 43.2861 391.345C43.1751 389.497 40.6469 389.49 38.871 390.205C38.8487 390.215 38.8241 390.223 38.7995 390.232C38.4171 389.649 37.7215 389.336 37.0161 389.502C36.9668 389.514 36.9175 389.529 36.8657 389.549C35.9161 389.936 34.5792 391.723 34.5792 391.723C36.2885 388.282 33.5531 384.258 29.8187 385.571L28.2056 381.834L25.9438 382.766L23.6696 383.662L25.1224 387.456C21.5213 389.095 22.3771 393.879 26.0129 395.166C26.0129 395.166 23.8004 394.808 22.8507 395.19C22.8014 395.21 22.7496 395.234 22.7101 395.259C22.0836 395.624 21.8074 396.34 21.9406 397.018C21.9159 397.026 21.8888 397.038 21.8691 397.043C20.0956 397.759 18.2827 399.506 19.4937 400.915C20.3595 401.797 23.0283 402.189 23.788 402.329C25.0188 402.454 26.8687 401.687 27.3917 401.692C27.4435 401.78 31.0446 405.5 29.4068 406.162C29.2662 406.216 29.0837 406.247 28.8518 406.252C27.9713 406.282 25.7021 404.676 24.8634 404.399C24.0273 404.118 23.4205 404.167 22.6904 404.424C22.6312 404.444 22.5745 404.466 22.5153 404.49C21.5484 404.88 20.7024 405.6 20.1647 406.495C20.1647 406.495 19.0794 408.514 18.9413 409.975C18.7415 412.065 18.0804 418.26 20.7147 424.644C21.2278 425.886 22.5967 428.688 23.8867 430.501C24.6464 431.562 25.8451 432.854 27.4311 432.366C27.4804 432.354 27.5347 432.334 27.5914 432.312C29.3205 431.616 33.8787 427.523 34.0489 427.347C34.3843 428.354 41.3918 433.518 42.6596 433.383C42.6127 433.572 49.5511 430.78 49.3809 430.678C50.3897 429.905 51.8055 421.341 51.3394 420.392C51.5934 420.4 57.73 420.186 59.4615 419.491C59.5186 419.466 59.5675 419.444 59.6171 419.422Z" fill="white"/>
<path fill-rule="evenodd" clip-rule="evenodd" d="M55.3414 439.261L81.827 487.96C78.5295 473.991 77.0666 456.933 77.0937 440.263C77.1012 438.526 77.1381 436.82 77.2095 435.178C77.5081 428.383 77.6315 422.747 78.2361 416.348L76.0602 415.97C76.1715 414.238 76.6378 410.557 76.6153 410.582C71.411 415.483 67.472 418.608 63.5035 420.637C62.8222 421.654 61.9518 422.283 61.2682 422.631C61.1328 422.695 60.9823 422.761 60.8198 422.83C59.633 423.308 56.5105 423.548 54.6063 423.712C54.5743 425.56 54.372 428.194 53.124 431.682L53.5235 436.168C54.229 437.443 54.7914 438.342 55.3414 439.261Z" fill="white"/>
<path fill-rule="evenodd" clip-rule="evenodd" d="M97.5115 514.141L109.023 474.845C107.869 470.738 106.806 466.231 105.915 461.59C101.772 438.078 103.589 415.827 105.19 402.334C94.0485 412.555 89.2091 415.467 81.4664 416.67C80.9534 422.387 80.5096 426.401 80.3839 434.704C80.3614 436.368 80.3568 438.069 80.3614 439.777C80.3344 462.418 83.0255 486.025 89.5693 501.729L97.5115 514.141Z" fill="white"/>
<path fill-rule="evenodd" clip-rule="evenodd" d="M322.28 317.601L336.941 310.149L322.655 299.727L322.28 317.601Z" fill="white"/>
<path fill-rule="evenodd" clip-rule="evenodd" d="M329.896 366.159L363.977 301.316C363.977 301.316 298.283 333.842 298.458 333.929C312.239 340.425 324.221 351.992 329.896 366.159Z" fill="white"/>
<path fill-rule="evenodd" clip-rule="evenodd" d="M335.792 365.06L355.583 368.817C355.297 362.637 354.55 353.89 352.727 348.21C351.331 348.134 347.68 347.024 345.618 346.161L335.792 365.06Z" fill="white"/>
<path fill-rule="evenodd" clip-rule="evenodd" d="M212.163 365.06L202.341 346.161C200.277 347.024 196.622 348.134 195.23 348.21C193.405 353.895 192.702 362.644 192.421 368.802L212.163 365.06Z" fill="white"/>
<path fill-rule="evenodd" clip-rule="evenodd" d="M165.852 348.876C163.21 357.12 161.373 366.88 160.356 374.882L174.278 372.242C174.66 366.626 177.033 351.023 177.304 348.339C177.304 348.339 175.2 348.212 173.059 347.722L173.123 345.906C171.629 346.977 168.814 348.376 165.852 348.876Z" fill="white"/>
<path fill-rule="evenodd" clip-rule="evenodd" d="M488.989 345.439C489.594 346.701 490.267 350.696 490.267 350.696C490.267 350.696 484.947 351.583 483.201 351.701C500.333 374.908 504.373 400.615 507.679 413.051C509.245 418.957 512.991 421.867 516.151 424.89C517.429 426.115 524.323 433.252 539.413 437.44C540.96 437.866 544.704 438.396 545.331 438.4C543.85 420.943 541.115 406.209 537.677 393.442C537.351 392.239 537.045 391.016 536.71 389.854C533.326 378.074 529.347 368.048 525.248 359.136C525.159 359.192 522.478 353.972 521.222 351.453C521.222 351.448 521.215 351.443 521.213 351.436C517.977 352.159 514.63 352.681 511.097 352.681C504.457 352.681 497.201 350.897 488.989 345.439Z" fill="white"/>
<path fill-rule="evenodd" clip-rule="evenodd" d="M347.253 343.01C351.315 345.647 355.669 344.872 355.945 344.847C355.484 339.838 353.908 334.815 352.931 332.087L347.253 343.01Z" fill="white"/>
<path fill-rule="evenodd" clip-rule="evenodd" d="M299.803 328.947L314.81 321.396L306.33 307.952L299.803 328.947Z" fill="white"/>
<path fill-rule="evenodd" clip-rule="evenodd" d="M453.081 342.175C450.901 332.482 442.218 301.467 421.341 287.18C420.688 289.643 419.242 290.934 417.96 291.574C415.811 292.642 413.128 292.829 409.775 291.709C408.715 291.358 405.03 289.415 403.429 288.357C404.502 289.388 406.914 291.334 407.667 292.12C419.304 304.271 427.769 322.773 431.614 339.704L431.93 341.089C439.194 345.539 445.531 347.561 454.351 347.838C454.148 347.35 453.584 344.652 453.081 342.175Z" fill="white"/>
<path fill-rule="evenodd" clip-rule="evenodd" d="M391.047 375.544L409.531 379.052C407.928 371.261 405.293 360.512 401.971 348.571C398.002 348.019 394.255 346.98 391.229 345.052L391.572 347.846C391.572 347.846 386.629 348.254 385.465 348.453C388.155 357.003 390.045 367.25 391.047 375.544Z" fill="white"/>
<path fill-rule="evenodd" clip-rule="evenodd" d="M355.201 327.715C356.656 331.982 358.2 337.704 359.182 341.493C361.686 344.529 368.358 345.722 372.817 344.69C370.19 333.099 365.654 323.081 361.856 314.903L355.201 327.715Z" fill="white"/>
<path fill-rule="evenodd" clip-rule="evenodd" d="M358.931 369.452L370.294 371.607C369.905 366.289 367.902 351.24 367.26 348.1C364.651 347.693 362.705 347.385 359.217 344.78C359.279 345.971 359.289 347.51 359.289 347.51C358.672 347.924 357.537 347.914 356.141 348.127C357.944 354.298 358.672 363.296 358.931 369.452Z" fill="white"/>
<path fill-rule="evenodd" clip-rule="evenodd" d="M192.014 344.848C192.288 344.875 196.639 345.646 200.706 343.009L195.028 332.085C194.049 334.817 192.47 339.841 192.014 344.848Z" fill="white"/>
<path fill-rule="evenodd" clip-rule="evenodd" d="M175.137 344.69C179.599 345.722 186.269 344.529 188.777 341.493C189.754 337.706 191.298 331.982 192.753 327.715L186.096 314.903C182.3 323.081 177.766 333.099 175.137 344.69Z" fill="white"/>
<path fill-rule="evenodd" clip-rule="evenodd" d="M429.806 347.8C429.569 345.751 429.335 342.299 428.602 339.546C421.915 314.376 413.164 301.314 402.079 290.529C399.558 293.075 393.602 292.933 389.196 292.257C388.908 293.039 388.422 293.708 386.954 294.034C399.519 305.522 404.879 321.796 410.241 340.426C412.549 347.322 421.784 347.77 429.806 347.8Z" fill="white"/>
<path fill-rule="evenodd" clip-rule="evenodd" d="M93.607 347.838C102.427 347.561 108.764 345.537 116.028 341.089L116.341 339.704C120.184 322.773 128.652 304.271 140.291 292.121C141.044 291.332 143.453 289.388 144.526 288.356C142.928 289.413 139.238 291.359 138.182 291.709C134.83 292.827 132.146 292.643 129.998 291.572C128.713 290.935 127.27 289.643 126.616 287.181C105.737 301.468 97.0572 332.482 94.8768 342.175C94.3741 344.65 93.8041 347.351 93.607 347.838Z" fill="white"/>
<path fill-rule="evenodd" clip-rule="evenodd" d="M145.988 348.571C142.639 360.62 139.936 371.206 138.327 379.056L156.843 375.545C157.835 367.239 159.784 357.049 162.494 348.453C161.325 348.252 156.385 347.843 156.385 347.843L156.725 345.049C153.704 346.98 149.952 348.016 145.988 348.571Z" fill="white"/>
<path fill-rule="evenodd" clip-rule="evenodd" d="M233.145 321.398L248.157 328.949L241.84 307.952L233.145 321.398Z" fill="white"/>
<path fill-rule="evenodd" clip-rule="evenodd" d="M211.017 310.149L225.678 317.602L225.298 299.729L211.017 310.149Z" fill="white"/>
<path fill-rule="evenodd" clip-rule="evenodd" d="M218.058 366.159C223.728 352.002 235.703 340.445 249.472 333.941C249.654 333.852 183.977 301.316 183.977 301.316L218.058 366.159Z" fill="white"/>
<path fill-rule="evenodd" clip-rule="evenodd" d="M229.11 416.755L274.083 337.956L318.653 416.755H229.11ZM318.104 423.34C325.536 413.849 329.978 401.924 329.978 388.97C329.978 363.665 313.04 342.235 289.877 335.353C284.803 333.848 279.445 333.025 273.891 333.025C268.395 333.025 263.09 333.834 258.07 335.312C258.076 335.326 258.076 335.336 258.08 335.353C234.92 342.235 217.974 363.665 217.974 388.97C217.974 401.924 222.419 413.849 229.848 423.34C240.131 436.343 256.038 444.928 273.891 444.928C291.84 444.928 307.83 436.465 318.104 423.34Z" fill="white"/>
<path fill-rule="evenodd" clip-rule="evenodd" d="M274.067 346.677L236.521 412.469H311.272L274.067 346.677Z" fill="white"/>
<path fill-rule="evenodd" clip-rule="evenodd" d="M52.38 394.72L52.4713 394.801C54.4026 396.433 59.5327 400.778 62.3916 407.89C62.9738 409.336 64.0442 412.57 64.4315 415.08C64.4811 415.418 64.4857 415.715 64.5105 416.028C68.0599 413.884 72.1027 410.492 77.2626 405.39C80.1186 384.707 85.7304 365.372 93.7221 351.084C93.0091 351.111 89.5161 351.121 89.5161 351.121C89.5161 351.121 90.096 346.617 90.5669 344.931C84.7067 348.585 78.1335 351.695 68.5481 351.795C61.8291 362.654 55.7863 370.182 49.0156 392.818C50.0022 393.223 51.3712 393.867 52.38 394.72Z" fill="white"/>
<path fill-rule="evenodd" clip-rule="evenodd" d="M81.1649 401.514C81.1649 401.514 79.4507 411.139 79.4507 413.423C79.4507 413.423 89.7584 415.333 105.845 397.227C105.873 397.041 106.031 395.983 106.089 395.6L83.0641 391.405C81.9396 396.816 81.1649 401.514 81.1649 401.514Z" fill="white"/>
<path fill-rule="evenodd" clip-rule="evenodd" d="M180.694 348.102C180.058 351.244 178.065 366.281 177.678 371.599L189.059 369.44C189.32 363.309 190.028 354.248 191.813 348.132C190.42 347.914 189.285 347.926 188.666 347.512C188.666 347.512 188.679 345.973 188.738 344.78C185.25 347.387 183.309 347.696 180.694 348.102Z" fill="white"/>
<path fill-rule="evenodd" clip-rule="evenodd" d="M160.872 341.178L160.07 345.195C166.219 346.815 170.558 343.842 172.245 342.156C175.383 331.366 179.645 320.4 184.048 310.962L178.643 300.569C172.208 311.59 164.754 327.729 160.872 341.178Z" fill="white"/>
<path fill-rule="evenodd" clip-rule="evenodd" d="M162.511 291.511C163.246 292.14 166.311 292.783 169.706 292.104C169.37 291.917 166.038 289.599 165.091 288.893C164.617 289.296 163.209 290.883 162.511 291.511Z" fill="white"/>
<path fill-rule="evenodd" clip-rule="evenodd" d="M437.385 286.305C438.075 285.881 438.379 285.273 438.379 284.334V283.888C436.963 278.578 429.524 269.302 421.283 260.566C419.897 261.666 407.897 261.71 401.989 259.677C403.726 261.842 417.472 278.117 421.042 282.984C429.381 287.079 435.256 287.613 437.385 286.305Z" fill="white"/>
<path fill-rule="evenodd" clip-rule="evenodd" d="M145.966 259.677C140.064 261.713 128.059 261.666 126.673 260.566C118.432 269.302 110.993 278.578 109.579 283.888V284.334C109.579 285.273 109.881 285.881 110.571 286.305C112.702 287.613 118.577 287.079 126.917 282.987C130.486 278.117 144.23 261.843 145.966 259.677Z" fill="white"/>
<path fill-rule="evenodd" clip-rule="evenodd" d="M61.4188 348.075C76.0407 350.079 83.8076 345.497 91.6414 340.341C93.4397 332.824 97.6428 318.876 103.108 309.301C106.305 303.684 109.08 297.651 118.06 289.696C114.117 290.544 110.927 290.365 108.84 289.084C107.797 288.439 107.058 287.556 106.653 286.478C99.5143 288.794 94.298 290.074 90.5537 289.863C79.8363 300.829 72.4394 318.898 63.9497 341.355C63.2194 343.257 61.6534 347.401 61.4188 348.075Z" fill="white"/>
<path fill-rule="evenodd" clip-rule="evenodd" d="M107.792 384.843C110.604 370.14 114.629 356.933 118.588 351.064C117.878 351.072 114.605 351.064 114.605 351.064C114.605 351.064 114.837 346.764 115.115 345.349C109.593 348.253 103.952 349.981 97.7092 350.697C90.9308 360.629 86.0937 377.977 83.4965 389.448L107.792 384.843Z" fill="white"/>
<path fill-rule="evenodd" clip-rule="evenodd" d="M136.732 346.877C133.188 349.962 128.282 350.681 122.949 350.947C119.052 354.195 114.624 367.815 111.404 384.161L134.981 379.693C136.554 371.775 139.1 361.125 142.469 348.948C140.59 349.083 138.693 349.134 136.824 349.134L136.732 346.877Z" fill="white"/>
<path fill-rule="evenodd" clip-rule="evenodd" d="M373.656 372.245L387.718 374.911C386.692 366.905 384.739 357.095 382.104 348.876C379.144 348.376 376.33 346.977 374.833 345.906L374.897 347.724C372.761 348.212 370.654 348.339 370.654 348.339C370.926 351.044 373.311 366.768 373.656 372.245Z" fill="white"/>
<path fill-rule="evenodd" clip-rule="evenodd" d="M161.005 294.034C159.534 293.705 159.048 293.039 158.763 292.255C154.359 292.931 148.401 293.073 145.88 290.527C134.793 301.312 126.044 314.376 119.354 339.546C118.624 342.299 118.387 345.751 118.153 347.8C126.169 347.771 135.406 347.323 137.72 340.427C143.08 321.797 148.442 305.522 161.005 294.034Z" fill="white"/>
<path fill-rule="evenodd" clip-rule="evenodd" d="M173.244 294.926C169.172 295.967 165.09 295.353 163.977 295.303C151.603 306.319 146.657 321.28 140.949 341.088C140.691 342.075 139.916 345.352 140.029 345.855C146.724 345.791 153.26 344.372 157.781 340.037C162.335 324.28 169.525 308.044 176.764 296.945L176.7 296.825C175.573 296.207 174.43 295.58 173.244 294.926Z" fill="white"/>
<path fill-rule="evenodd" clip-rule="evenodd" d="M153.302 277.748C150.309 281.233 148.393 284.249 147.347 286.55C146.354 288.734 150.764 289.8 151.891 289.983C151.891 289.983 158.644 290.677 160.874 288.567C161.631 287.881 162.245 287.166 162.603 286.871C159.577 284.374 156.594 280.808 153.302 277.748Z" fill="white"/>
<path fill-rule="evenodd" clip-rule="evenodd" d="M129.62 285.22C128.838 287.462 131.093 288.822 132.287 289.069C134.1 289.444 137.22 290.003 144.814 284.472C146.272 282.34 149.145 278.904 151.252 275.437C147.53 271.44 146.652 268.122 145.815 266.582C139.861 271.956 131.586 280.906 129.62 285.22Z" fill="white"/>
<path fill-rule="evenodd" clip-rule="evenodd" d="M451.206 244.478C447.431 247.876 441.892 247.514 434.665 246.634C446.803 257.245 458.822 270.336 464.009 280.276C470.815 283.653 475.755 286.042 478.372 284.976C479.464 284.526 481.176 283.185 481.061 281.359C479.23 270.405 466.328 255.496 451.452 244.407C451.615 244.223 451.422 244.279 451.206 244.478Z" fill="white"/>
<path fill-rule="evenodd" clip-rule="evenodd" d="M66.894 281.359C66.7759 283.185 68.49 284.526 69.5823 284.976C72.1968 286.043 77.14 283.656 83.9501 280.276C89.137 270.337 101.154 257.245 113.295 246.635C106.07 247.514 100.523 247.874 96.7466 244.478C96.5293 244.28 96.3397 244.223 96.5051 244.404C81.6289 255.493 68.7293 270.405 66.894 281.359Z" fill="white"/>
<path fill-rule="evenodd" clip-rule="evenodd" d="M88.1946 285.935C90.7797 287.79 98.3639 285.741 106.376 283.121C108.09 276.578 116.671 265.592 126.147 255.871C126.039 256.162 128.313 253.415 129.218 252.474C122.152 254.031 115.62 253.893 113.842 250.864C113.834 250.845 87.6862 274.179 86.7962 281.913C86.6285 284.121 87.6199 285.523 88.1946 285.935Z" fill="white"/>
<path fill-rule="evenodd" clip-rule="evenodd" d="M140.052 232.184C135.807 233.889 129.968 237.675 123.674 242.592C123.674 242.592 116.674 249.216 116.679 249.223C117.419 250.534 125.753 251.016 136.184 246.941C139.946 243.464 143.288 240.602 145.67 238.825C145.054 237.339 144.274 236.024 143.315 234.899C142.405 233.83 141.299 232.943 140.052 232.184Z" fill="white"/>
<path fill-rule="evenodd" clip-rule="evenodd" d="M411.962 230.447C416.907 232.979 423.135 237.341 429.59 242.627C432.589 243.644 445.692 245.58 448.58 242.571C438.724 235.628 428.25 230.523 419.724 229.432C416.798 229.445 414.218 229.791 411.962 230.447Z" fill="white"/>
<path fill-rule="evenodd" clip-rule="evenodd" d="M404.641 234.899C403.681 236.024 402.904 237.338 402.285 238.823C404.67 240.602 408.013 243.467 411.777 246.944C422.203 251.017 430.537 250.534 431.28 249.223C431.285 249.216 424.279 242.592 424.279 242.592C417.985 237.678 412.149 233.89 407.909 232.184C406.656 232.943 405.553 233.83 404.641 234.899Z" fill="white"/>
<path fill-rule="evenodd" clip-rule="evenodd" d="M99.3783 242.571C102.262 245.58 115.366 243.644 118.364 242.624C124.823 237.339 131.054 232.977 135.997 230.448C133.737 229.791 131.162 229.443 128.232 229.433C119.705 230.521 109.235 235.628 99.3783 242.571Z" fill="white"/>
<path fill-rule="evenodd" clip-rule="evenodd" d="M130.114 257.322C130.53 258.484 142.076 258.484 146.844 255.903C147.552 250.429 147.507 245.861 146.686 242.153C144.35 243.957 132.673 254.705 130.114 257.322Z" fill="white"/>
<path fill-rule="evenodd" clip-rule="evenodd" d="M256.757 331.28V331.226C262.193 329.617 267.938 328.737 273.89 328.737C279.76 328.737 285.433 329.589 290.798 331.158C292.317 331.594 293.81 332.086 295.273 332.641L282.942 251.062L273.939 191.482L264.933 251.047C264.958 251.052 264.985 251.06 265.015 251.062L252.682 332.641C254.017 332.133 255.383 331.69 256.757 331.28Z" fill="white"/>
<path fill-rule="evenodd" clip-rule="evenodd" d="M255.469 286.967C252.667 290.062 242.354 300.21 242.571 299.985L250.022 323.374L255.469 286.967Z" fill="white"/>
<path fill-rule="evenodd" clip-rule="evenodd" d="M60.9768 339.927C69.2296 318.1 76.5406 300.399 86.9664 288.957C86.737 288.832 86.4834 288.739 86.2684 288.587C84.6528 287.43 83.9646 285.723 83.6787 284.063C76.7844 287.462 72.024 289.513 68.327 287.999C66.6543 287.311 65.3373 285.933 64.3309 283.806C63.7712 284.1 63.2311 284.404 62.7031 284.696C59.043 286.727 55.7796 288.474 49.7119 288.742C49.6946 288.771 49.6773 288.803 49.66 288.83C37.088 310.75 30.2557 329.201 27.6165 348.289C37.0831 350.362 47.6942 350.35 60.9768 339.927Z" fill="white"/>
<path fill-rule="evenodd" clip-rule="evenodd" d="M20.9492 432.608C20.9442 432.598 20.9368 432.591 20.9295 432.581C19.452 430.513 17.9523 427.452 17.3554 426.006C14.4326 418.921 15.0763 412.258 15.3156 409.748L15.3279 409.631C15.5228 407.562 16.724 405.237 16.9608 404.796L17.0051 404.71L17.0545 404.632C17.1951 404.399 17.3431 404.178 17.5034 403.963C17.2937 403.798 17.089 403.624 16.9016 403.433L16.8177 403.345L16.7413 403.257C15.6362 401.975 15.2293 400.316 15.6239 398.703C16.0457 396.968 17.2962 395.611 18.68 394.677C18.8896 394.158 19.1856 393.675 19.5556 393.248C19.3508 392.599 19.2275 391.916 19.193 391.217C19.114 389.377 19.7011 387.671 20.8036 386.318L20.2782 384.941L19.0031 381.62L22.3329 380.309L24.5553 379.435L26.8171 378.503L30.1247 377.143L31.5381 380.41L32.1226 381.762C33.864 381.973 35.4821 382.794 36.7079 384.166C37.1791 384.694 37.5663 385.269 37.8721 385.872C38.437 385.931 38.9895 386.071 39.505 386.294C41.1502 386.014 43.0026 386.129 44.5146 387.073C45.3853 387.62 46.0167 388.401 46.4212 389.305C49.9804 377.726 55.4192 364.351 64.7526 351.701C63.0085 351.583 57.6907 350.696 57.6907 350.696C57.6907 350.696 58.3645 346.701 58.9685 345.439C50.7525 350.894 43.5009 352.681 36.8584 352.681C33.3288 352.681 29.9792 352.156 26.7431 351.434C26.7431 351.441 26.7382 351.448 26.7357 351.453C25.4778 353.972 22.7991 359.192 22.7078 359.136C18.6109 368.049 14.6324 378.074 11.2458 389.854C10.9153 391.016 10.6045 392.239 10.2789 393.442C6.84546 406.21 4.10511 420.943 2.62518 438.401C3.25169 438.394 6.99589 437.865 8.53999 437.438C13.5619 436.048 17.6539 434.323 20.9492 432.608Z" fill="white"/>
<path fill-rule="evenodd" clip-rule="evenodd" d="M50.9835 462.661L42.1187 436.998C41.9239 436.966 41.7339 436.924 41.544 436.861C40.4168 436.581 38.7618 435.78 35.8808 433.714C35.1212 433.17 34.4799 432.682 33.9273 432.244C32.4474 433.476 30.6567 434.837 29.3223 435.481C25.3215 490.392 30.9379 530.859 35.39 541.283C39.9605 552 47.5649 565.592 47.5649 565.592L54.851 531.192L57.8677 516.945C52.8926 503.711 51.2548 485.547 51.0255 468.961C51.0255 468.853 50.9835 462.972 50.9835 462.661Z" fill="white"/>
<path fill-rule="evenodd" clip-rule="evenodd" d="M66.8541 508.152L54.5558 472.493C54.7284 479.586 55.3155 487.56 56.1517 494.39C56.1467 494.392 56.1418 494.397 56.1369 494.407C57.0815 502.138 58.5737 509.451 60.934 515.745L70.3171 534.394C70.3171 534.394 72.1253 527.506 72.0042 527.179C70.7045 523.568 66.8541 508.152 66.8541 508.152Z" fill="white"/>
<path fill-rule="evenodd" clip-rule="evenodd" d="M317.465 459.285L298.902 449.374L296.996 462.799L296.463 466.462C324.996 471.587 340.012 485.815 341.46 498.166C344.457 498.247 347.202 498.517 349.698 499.002C349.491 493.667 342.829 477.162 339.975 471.405L317.465 459.285Z" fill="white"/>
<path fill-rule="evenodd" clip-rule="evenodd" d="M372.432 499.63C372.547 493.563 369.491 487.368 368.043 485.657L344.69 473.798C348.128 481.702 353.027 494.977 353.027 499.805C353.027 499.805 359.452 501.481 363.312 506.005C365.676 508.776 367.047 512.286 367.469 516.452C369.933 512.376 372.31 506.306 372.432 499.63Z" fill="white"/>
<path fill-rule="evenodd" clip-rule="evenodd" d="M299.868 513.388C308.392 520.531 317.499 528.881 327.133 537.736C336.444 546.302 346.557 555.157 356.172 565.356C370.194 577.551 383.023 561.533 382.645 557.801C380.909 559.417 376.546 561.441 371.551 560.826L371.154 560.774C363.537 558.888 357.183 552.322 351.577 546.532C348.375 543.221 345.344 540.093 342.377 538.069C325.051 538.069 302.909 506.899 301.002 497.422L299.868 513.388Z" fill="white"/>
<path fill-rule="evenodd" clip-rule="evenodd" d="M416.298 491.174C413.297 495.578 411.197 500.633 410.228 506.073L427.731 510.37C434.235 509.551 441.43 510.908 445.199 512.832C448.568 514.548 448.878 515.369 448.878 515.369L456.609 517.126C464.122 515.976 473.073 518.758 476.238 521.894L485.756 524.235C486.873 520.628 487.475 516.795 487.475 512.827C487.475 511.227 487.367 509.659 487.177 508.115L416.298 491.174Z" fill="white"/>
<path fill-rule="evenodd" clip-rule="evenodd" d="M295.95 469.978L294.554 479.988L281.252 573.584C295.718 603.803 303.381 640.336 275.938 681.853V687.447C275.944 687.447 275.951 687.447 275.958 687.447V693.099C276.116 692.932 276.289 692.748 276.461 692.553C276.7 692.288 276.979 691.995 277.271 691.69C277.83 691.081 278.464 690.403 279.14 689.672C281.451 687.189 284.236 684.164 286.128 681.652C293.01 672.51 294.606 671.228 296.268 668.255C307.38 637.703 315.616 601.308 293.355 562.551L293.108 562.119L299.092 477.601L301.882 485.068C304.237 490.499 309.311 499.63 314.897 501.316C315.588 501.522 316.276 501.656 316.962 501.757C316.967 501.769 316.972 501.779 316.974 501.789C320.988 502.262 324.979 501.1 329.152 499.99C332.07 499.216 335.076 498.449 338.123 498.221C336.214 483.1 316.276 473.808 295.95 469.978Z" fill="white"/>
<path fill-rule="evenodd" clip-rule="evenodd" d="M296.99 553.944L296.465 561.366C315.596 594.995 312.527 626.733 304.267 654.572C330.642 635.667 311.348 581.576 296.99 553.944Z" fill="white"/>
<path fill-rule="evenodd" clip-rule="evenodd" d="M248.946 525.287L248.389 517.445C240.441 524.2 231.994 531.933 223.075 540.138C214.908 547.647 206.539 553.27 198.21 563.44C193.481 569.063 190.151 581.954 190.238 590.026C190.388 604.153 197.289 615.474 203.19 625.915C203.939 574.934 226.474 539.379 248.946 525.287Z" fill="white"/>
<path fill-rule="evenodd" clip-rule="evenodd" d="M250.034 540.621L249.215 529.064C227.685 543.571 206.529 579.574 206.403 629.29L206.448 629.399C210.75 640.783 215.815 650.264 223.597 657.032C208.443 598.369 226.032 554.414 250.034 540.621Z" fill="white"/>
<path fill-rule="evenodd" clip-rule="evenodd" d="M250.54 547.751L250.293 544.261C227.475 558.324 211.642 602.498 227.879 660.258C233.279 663.834 239.803 666.358 247.97 667.577C247.015 664.892 246.08 662.161 245.19 659.384C209.953 640.169 235.735 575.193 250.54 547.751Z" fill="white"/>
<path fill-rule="evenodd" clip-rule="evenodd" d="M297.681 544.255L297.431 547.745C312.233 575.194 338.016 640.169 302.781 659.384C301.888 662.161 300.959 664.892 299.999 667.577C308.166 666.358 314.692 663.828 320.094 660.258C336.329 602.504 320.498 558.324 297.681 544.255Z" fill="white"/>
<path fill-rule="evenodd" clip-rule="evenodd" d="M251.124 466.463L250.355 461.206L248.786 450.497L233.017 458.503L207.607 471.406C204.756 477.162 198.098 493.668 197.889 499.003C200.38 498.517 203.133 498.245 206.127 498.167C207.577 485.816 222.589 471.585 251.124 466.463Z" fill="white"/>
<path fill-rule="evenodd" clip-rule="evenodd" d="M179.544 485.657C178.094 487.368 175.043 493.563 175.154 499.63C175.275 506.308 177.658 512.376 180.114 516.451C180.539 512.286 181.91 508.776 184.273 506.004C188.131 501.483 194.558 499.805 194.558 499.805C194.558 494.977 199.457 481.702 202.893 473.798L179.544 485.657Z" fill="white"/>
<path fill-rule="evenodd" clip-rule="evenodd" d="M191.796 565.355C201.418 555.155 211.523 546.301 220.834 537.734C230.469 528.88 239.577 520.529 248.102 513.386L246.97 497.42C245.066 506.899 222.921 538.068 205.591 538.068C202.629 540.091 199.597 543.225 196.393 546.531C190.787 552.326 184.43 558.886 176.819 560.772L176.419 560.83C171.427 561.439 167.066 559.415 165.329 557.8C164.952 561.531 177.778 577.549 191.796 565.355Z" fill="white"/>
<path fill-rule="evenodd" clip-rule="evenodd" d="M292.593 462.652L295.049 445.392C288.461 447.861 281.331 449.216 273.889 449.216C266.348 449.216 259.129 447.821 252.469 445.292L254.793 461.155L257.41 479.001L274.081 592.747L290.449 477.716L292.593 462.652Z" fill="white"/>
<path fill-rule="evenodd" clip-rule="evenodd" d="M298.758 529.064L297.942 540.621C321.936 554.408 339.53 598.369 324.373 657.037C332.155 650.264 337.226 640.784 341.526 629.399L341.565 629.29C341.444 579.574 320.288 543.576 298.758 529.064Z" fill="white"/>
<path fill-rule="evenodd" clip-rule="evenodd" d="M94.3912 526.678C95.5209 524.677 96.7365 519.52 96.0091 517.469C95.2742 515.415 87.8053 504.649 85.2329 500.636C83.1336 497.352 58.3447 451.412 49.3864 434.793C48.8931 435.008 45.805 436.248 45.208 436.459C51.4632 454.253 68.9711 504.135 69.7924 507.262C70.7936 511.073 73.8768 524.844 75.0186 526.638C76.1633 528.42 80.7537 531.036 83.7723 531.307C86.7891 531.577 93.2563 528.668 94.3912 526.678Z" fill="white"/>
<path fill-rule="evenodd" clip-rule="evenodd" d="M167.563 521.475C161.01 517.106 160.238 510.21 160.238 510.21C158.26 513.921 156.615 515.464 153.381 517.031C153.381 517.031 156.027 518.881 158.173 521.251C160.62 523.954 164.586 529.945 161.607 532.538C158.625 535.136 127.386 532.946 121.868 532.492C116.353 532.037 100.547 529.099 98.0116 529.318C95.476 529.531 89.3836 532.193 86.3575 534.648C83.3234 537.103 82.751 541.875 83.4986 544.054C84.241 546.233 85.1909 546.325 86.7915 545.738C88.3973 545.146 89.5617 543.565 89.5617 543.565C89.5617 543.565 93.6137 535.706 96.5366 535.131C100.264 534.4 110.406 543.991 113.64 545.434C116.873 546.883 130.78 546.894 134.161 545.957C137.546 545.014 142.23 541.231 147.927 540.587C154.281 539.862 176.495 544.876 179.613 544.525C182.73 544.18 184.558 540.506 184.151 537.741C183.744 534.975 180.525 525.529 180.525 525.529C180.525 525.529 175.18 526.558 167.563 521.475Z" fill="white"/>
<path fill-rule="evenodd" clip-rule="evenodd" d="M266.801 573.388L253.368 481.787L251.639 469.978C231.307 473.806 211.373 483.101 209.461 498.221C212.507 498.449 215.514 499.213 218.434 499.988C222.743 501.14 226.86 502.355 231.006 501.757C231.695 501.657 232.383 501.522 233.073 501.316C238.665 499.63 243.729 490.499 246.092 485.068L248.879 477.599L254.865 562.119L254.614 562.55C232.36 601.302 240.591 637.702 251.703 668.255C253.368 671.227 254.964 672.51 261.846 681.651C264.403 685.049 268.579 689.367 271.009 692.024C271.186 692.208 271.359 692.386 271.51 692.552C271.685 692.754 271.855 692.932 272.013 693.099V687.447V681.922C244.461 640.284 252.258 603.659 266.801 573.388Z" fill="white"/>
<path fill-rule="evenodd" clip-rule="evenodd" d="M243.702 654.572C235.442 626.733 232.371 594.995 251.507 561.366L250.982 553.944C236.624 581.576 217.328 635.667 243.702 654.572Z" fill="white"/>
<path fill-rule="evenodd" clip-rule="evenodd" d="M406.168 518.913C406.114 518.773 406.074 518.621 406.01 518.486L406.356 518.621C406.089 516.729 405.941 514.795 405.941 512.828C405.941 510.674 406.232 507.571 406.821 504.496L406.642 503.238C403.494 501.567 401.173 500.398 399.313 498.479C391.919 491.079 388.327 481.989 383.628 473.836C377.622 463.401 371.905 453.54 361.267 445.357C361.22 445.338 361.178 445.318 361.136 445.299C356.94 443.556 352.755 442.008 348.643 440.598L351.65 447.328L354.173 452.17C365.618 461.421 383.801 479.151 389.987 508.238C391.028 513.127 401.119 517.175 406.168 518.913Z" fill="white"/>
<path fill-rule="evenodd" clip-rule="evenodd" d="M545.561 441.683C545.487 441.678 541.308 441.262 539.838 440.938C533.879 439.634 527.345 436.753 521.798 433.322C524.809 482.324 522.938 516.133 515.742 542.379L515.713 542.374L525.811 589.962C537.403 556.857 549.406 514.143 546.557 468.613C546.557 458.955 546.185 450.045 545.561 441.683Z" fill="white"/>
<path fill-rule="evenodd" clip-rule="evenodd" d="M493.288 470.23C493.32 467.98 492.427 432.201 492.247 422.31C484.909 420.823 479.806 418.551 471.335 410.582C471.319 410.557 471.784 414.238 471.896 415.97L469.723 416.345C470.322 422.744 470.448 428.381 470.746 435.178C470.808 436.558 470.84 437.985 470.852 439.435L472.736 439.771L473.95 439.987L473.171 440.938L470.363 444.376L474.483 442.839L475.686 442.388L475.457 443.641L472.184 461.67L471.957 462.922L470.993 462.089L469.947 461.192C469.412 467.745 468.773 473.097 468.433 475.383C479.468 481.181 487.635 491.643 490.257 504.134C490.898 500.999 491.396 497.728 491.805 494.39C492.76 486.57 493.16 478.327 493.288 470.23Z" fill="white"/>
<path fill-rule="evenodd" clip-rule="evenodd" d="M448.552 474.155C436.402 474.155 425.551 479.689 418.415 488.354L486.596 504.648C482.817 487.22 467.224 474.155 448.552 474.155Z" fill="white"/>
<path fill-rule="evenodd" clip-rule="evenodd" d="M450.003 470.529C455.447 470.71 460.633 471.898 465.374 473.923C465.7 471.651 466.299 466.963 466.551 464.615L451.756 462.109L450.003 470.529Z" fill="white"/>
<path fill-rule="evenodd" clip-rule="evenodd" d="M415.741 485.818C416.246 485.208 417.879 483.561 419.552 481.98C419.009 480.275 418.565 478.895 418.346 478.206C416.634 470.092 412.909 463.829 407.557 458.768C406.474 462.579 403.056 467.766 403.056 467.766C407.09 471.854 408.812 473.986 411.634 478.927C412.606 480.603 414.143 483.612 415.492 486.139C415.576 486.029 415.66 485.911 415.741 485.818Z" fill="white"/>
<path fill-rule="evenodd" clip-rule="evenodd" d="M518.292 430.903C515.463 428.712 513.756 427.627 508.796 421.559C506.682 422.407 500.486 422.858 495.896 422.493C496.015 429.433 496.631 460.23 496.631 460.325C496.695 472.6 496.417 485.871 494.656 497.972C493.839 503.591 492.707 508.96 491.138 513.852C491.094 515.763 490.919 517.65 490.628 519.486L492.354 527.644L500.388 565.591C500.388 565.591 507.997 551.999 512.565 541.282C517.141 530.577 522.957 488.145 518.292 430.903Z" fill="white"/>
<path fill-rule="evenodd" clip-rule="evenodd" d="M363.727 478.556L346.853 448.288C338.087 431.259 329.215 413.404 329.118 413.624C326.872 418.592 323.953 423.196 320.493 427.336C314.509 434.496 306.89 440.267 298.257 444.078L320.55 455.976L363.727 478.556Z" fill="white"/>
<path fill-rule="evenodd" clip-rule="evenodd" d="M292.49 286.967L297.931 323.374C297.931 323.374 305.607 299.997 305.597 299.985C302.502 296.88 295.292 290.062 292.49 286.967Z" fill="white"/>
<path fill-rule="evenodd" clip-rule="evenodd" d="M401.109 255.903C405.879 258.484 417.423 258.484 417.845 257.322C415.28 254.705 403.606 243.959 401.269 242.156C400.451 245.861 400.407 250.429 401.109 255.903Z" fill="white"/>
<path fill-rule="evenodd" clip-rule="evenodd" d="M61.1052 281.837C61.9242 281.379 62.8021 280.903 63.7226 280.428C65.7204 269.778 76.7456 256.125 90.2079 245.135C84.1776 245.96 79.4218 244.855 76.7185 241.816C63.6678 251.489 47.7983 266.57 44.5252 284.393C45.021 284.812 46.6242 285.471 48.5703 285.518C54.5567 285.437 57.4696 283.849 61.1052 281.837Z" fill="white"/>
<path fill-rule="evenodd" clip-rule="evenodd" d="M145.824 232.782C154.035 241.854 148.113 260.668 148.967 265.586C150.459 272.411 158.976 279.566 165.892 285.35C168.092 287.359 177.112 293.557 183.984 296.924L206.822 308.021L229.223 291.376V319.401L230.481 320.048L242.572 299.985L240.142 261.197C233.9 274.075 225.168 283.179 214.937 288.264C209.651 290.891 201.169 292.373 201.169 292.373C201.169 292.373 216.826 267.657 217.667 266.108C211.346 269.816 199.893 273.982 195.146 275.281C192.449 275.883 188.475 276.302 184.581 274.992C183.377 274.584 176.449 271.556 170.058 264.385C166.637 260.258 162.505 253.549 161.719 247.954C160.271 237.634 156.648 230.417 150.895 224.673C145.755 219.551 138.333 218.352 138.331 218.363C134.103 217.431 129.375 217.353 124.166 218.159C124.615 220.335 126.6 223.764 128.842 226.17C136.476 226.295 142.063 228.623 145.824 232.782Z" fill="white"/>
<path fill-rule="evenodd" clip-rule="evenodd" d="M96.253 240.382L97.2127 240.066C106.524 233.474 116.41 228.477 124.989 226.683C123.114 224.265 121.493 221.343 120.971 218.888C110.643 221.822 94.5855 229.163 79.4385 239.892C82.796 243.218 90.0649 242.446 96.253 240.382Z" fill="white"/>
<path fill-rule="evenodd" clip-rule="evenodd" d="M298.812 210.293V184.767C295.342 186.095 291.814 187.848 288.38 189.558C285.9 190.786 281.242 192.945 278.69 194.057L284.452 232.345C287.695 227.832 297.482 212.508 298.812 210.293Z" fill="white"/>
<path fill-rule="evenodd" clip-rule="evenodd" d="M259.574 189.558C256.143 187.848 252.614 186.095 249.143 184.767V210.293C250.477 212.51 260.24 227.883 263.491 232.419L269.255 194.106C266.947 193.074 261.824 190.673 259.574 189.558Z" fill="white"/>
<path fill-rule="evenodd" clip-rule="evenodd" d="M202.187 268.151C206.023 267.958 212.724 265.757 220.911 260.334L226.056 256.926C226.056 256.926 211.809 282.414 208.514 287.345C222.215 282.988 233.386 270.823 240.246 252.612L243.462 245.601L245.768 291.357C249.234 287.776 253.058 284.409 256.205 280.856L260.314 253.556H260.311L262.652 237.994C258.821 232.593 249.365 217.091 248.975 216.432C248.03 231.53 243.186 242.17 234.24 248.85L230.528 251.622C230.528 251.622 233.441 242.731 232.521 231.437C232.148 226.839 231.443 222.051 230.555 217.213C227.81 231.625 222.307 243.795 212.246 247C211.464 248.4 210.124 250.36 207.48 253.468C207.471 253.463 198.594 262.481 188.056 265.221C188.056 265.221 194.946 268.517 202.187 268.151Z" fill="white"/>
<path fill-rule="evenodd" clip-rule="evenodd" d="M239.166 145.144C227.955 143.282 218.185 141.758 209.217 139.753C209.152 140.577 208.978 141.361 208.726 142.11C208.731 142.194 208.753 142.27 208.748 142.356C208.679 143.282 209.279 144.257 210.164 145.267C216.257 152.239 240.68 158.92 261.052 160.322L267.05 160.892C254.224 154.702 244.935 149.029 239.166 145.144Z" fill="white"/>
<path fill-rule="evenodd" clip-rule="evenodd" d="M221.618 200.246C222.309 192.024 219.568 179.477 219.568 179.477L222.58 180.97C233.122 186.212 240.743 195.727 245.852 204.314V180.171L248.02 180.884C252.393 182.329 256.791 184.518 261.043 186.628C262.345 187.275 263.663 187.92 264.987 188.557C260.947 183.721 247.761 161.533 247.761 161.533L247.875 161.521C231.869 159.149 213.37 154.493 207.396 147.654C206.944 147.136 206.589 146.609 206.279 146.073C204.152 148.264 201.109 149.683 197.939 149.987C198.371 155.295 200.874 162.597 203.378 167.543L203.55 167.893V176.228L204.021 176.882C204.108 176.997 204.189 177.117 204.273 177.235C208.365 182.925 211.764 187.922 209.391 193.676C211.438 197.643 215.832 206.196 216.904 215.695C219.546 211.788 221.088 206.579 221.618 200.246Z" fill="white"/>
<path fill-rule="evenodd" clip-rule="evenodd" d="M245.839 211.123C241.553 202.702 234.461 191.895 224.097 185.55C225.137 191.766 225.362 197.326 224.859 202.24C224.08 209.775 221.559 215.769 217.455 220.156C217.24 228.432 217.65 233.619 214.056 242.814C222.881 238.244 226.413 223.898 228.707 208.26C228.736 208.064 229.61 199.781 229.637 199.586C229.637 199.586 234.858 220.521 235.655 229.311C236.094 234.153 236.24 238.832 235.712 243.206C242.463 236.23 245.783 225.669 245.839 211.123Z" fill="white"/>
<path fill-rule="evenodd" clip-rule="evenodd" d="M352.672 170.592L347.369 177.74L346.614 178.787C346.516 178.924 346.429 179.049 346.333 179.179C346.338 179.179 346.346 179.184 346.348 179.191C342.658 184.33 340.564 187.624 341.173 190.993C346.693 186.58 354.219 184.055 362.326 183.921V183.916C362.546 183.913 362.763 183.896 362.983 183.896H362.995H363.005H363.054V183.899C375.096 183.921 380.887 190.211 385.825 201.225C388.472 194.436 388.864 187.543 387.036 180.265C384.331 169.504 366.981 168.318 352.672 170.592Z" fill="white"/>
<path fill-rule="evenodd" clip-rule="evenodd" d="M337.888 145.267C338.774 144.257 339.211 142.802 339.141 141.873V141.865C338.934 141.192 338.794 140.483 338.739 139.751C329.769 141.758 319.92 143.282 308.709 145.144C303.041 148.897 294.48 153.793 280.862 160.892L286.863 160.346C308.862 159.674 331.799 152.239 337.888 145.267Z" fill="white"/>
<path fill-rule="evenodd" clip-rule="evenodd" d="M196.203 146.832C200.901 146.832 205.958 143.718 205.968 139.008L184.328 133.094C187.469 141.051 192.362 146.832 196.203 146.832Z" fill="white"/>
<path fill-rule="evenodd" clip-rule="evenodd" d="M273.143 135.492H274.815C287.72 135.492 296.967 135.47 306.362 133.98L312.492 131.485C299.961 129.755 287.064 128.866 274.147 128.893C261.382 128.861 248.31 129.736 235.881 131.424L242.513 134.13C251.618 135.482 260.625 135.492 273.143 135.492Z" fill="white"/>
<path fill-rule="evenodd" clip-rule="evenodd" d="M200.261 168.663C197.694 163.485 195.037 155.797 194.64 149.921C188.725 148.688 182.914 139.753 180.025 131.615C174.471 129.63 169.762 127.571 165.87 125.427L200.261 171.783V168.663Z" fill="white"/>
<path fill-rule="evenodd" clip-rule="evenodd" d="M191.26 165.167L161.694 125.317C161.694 125.317 154.871 122.84 142.773 127.66C130.909 132.388 129.414 145.956 133.72 156.274C134.285 155.061 134.873 154.215 135.827 153.238C137.97 151.046 141.004 149.792 145.116 149.926C153.08 150.167 158.396 152.73 163.536 155.205C166.015 156.404 168.368 157.526 171.01 158.425C171.01 158.425 186.221 163.209 191.26 165.167Z" fill="white"/>
<path fill-rule="evenodd" clip-rule="evenodd" d="M185.01 166.349C180.963 165.168 171.721 162.128 171.721 162.128C169.57 164.175 140.068 165.253 132.165 164.106C124.262 162.952 118.298 159.528 109.201 155.304C118.737 170.262 135.191 177.918 158.138 178.18C161.337 169.103 172.618 166.077 185.01 166.349Z" fill="white"/>
<path fill-rule="evenodd" clip-rule="evenodd" d="M201.344 178.788L200.587 177.742L195.289 170.593C180.976 168.317 163.628 169.503 160.918 180.266C159.093 187.542 159.484 194.435 162.129 201.226C167.072 190.205 172.868 183.912 184.925 183.895H184.974C193.343 183.895 201.13 186.458 206.805 190.992C207.42 187.625 205.32 184.332 201.63 179.19C201.534 179.053 201.443 178.928 201.344 178.788Z" fill="white"/>
<path fill-rule="evenodd" clip-rule="evenodd" d="M363.629 133.094C357.357 135.143 350.152 137.111 341.988 139.01C342 143.72 347.056 146.832 351.75 146.832C355.591 146.832 360.485 141.051 363.629 133.094Z" fill="white"/>
<path fill-rule="evenodd" clip-rule="evenodd" d="M343.183 177.963C343.181 177.953 343.174 177.95 343.169 177.948C343.42 177.595 343.679 177.24 343.933 176.882L344.404 176.23V167.891L344.574 167.543C347.08 162.597 349.581 155.295 350.018 149.986C346.874 149.683 343.857 148.291 341.733 146.132C341.454 146.637 341.107 147.139 340.655 147.654C334.677 154.498 316.152 159.155 300.135 161.531L300.197 161.534C300.197 161.534 287.01 183.722 282.97 188.557C284.295 187.92 285.609 187.273 286.911 186.626C291.166 184.516 295.562 182.33 299.935 180.882L302.1 180.171V204.317C307.209 195.727 314.83 186.212 325.375 180.97L328.389 179.477L327.726 182.754C326.374 189.449 326.302 195.578 326.359 200.246C326.579 206.638 328.428 211.789 331.075 215.695C332.14 206.197 336.541 197.641 338.583 193.676C336.314 188.17 339.333 183.349 343.183 177.963Z" fill="white"/>
<path fill-rule="evenodd" clip-rule="evenodd" d="M323.306 203.739C323.242 203.779 322.411 195.26 323.863 185.553C313.494 191.895 306.405 202.702 302.118 211.125C302.172 225.67 305.492 236.232 312.246 243.206C311.711 238.78 312.268 231.235 312.771 226.444C314.165 216.11 316.819 205.047 318.338 199.585C318.368 199.781 319.241 208.067 319.271 208.263C321.565 223.898 325.301 239.778 334.472 243.179C331.083 234.624 330.74 228.434 330.528 220.158C326.636 216 323.626 208.579 323.306 203.739Z" fill="white"/>
<path fill-rule="evenodd" clip-rule="evenodd" d="M317.425 217.214C316.537 222.049 315.837 226.616 315.482 231.211C314.606 245.313 317.425 251.623 317.425 251.623L313.715 248.851C304.772 242.171 299.928 231.53 298.983 216.432C298.588 217.091 289.067 232.66 285.301 237.998L287.119 250.084L291.753 280.854C294.903 284.407 298.938 287.777 302.397 291.357L304.495 245.601L307.709 252.613C314.567 270.821 325.737 282.988 339.444 287.345C336.149 282.412 321.897 256.923 321.897 256.923L327.047 260.334C335.231 265.758 341.935 267.956 345.768 268.152C353.008 268.517 359.902 265.219 359.902 265.219C349.542 263.079 343.376 257.22 338.961 251.493C338.298 250.637 336.825 248.008 336.334 247.307C324.302 244.695 320.166 231.626 317.425 217.214Z" fill="white"/>
<path fill-rule="evenodd" clip-rule="evenodd" d="M346.786 292.373C346.786 292.373 338.304 290.89 333.021 288.263C322.792 283.178 314.055 274.074 307.818 261.196L305.598 299.984L317.479 320.048L318.737 319.398V291.376L341.136 308.02L363.971 296.924C370.845 293.554 379.866 287.359 382.066 285.347C388.984 279.566 397.496 272.41 398.989 265.585C399.842 260.667 393.922 241.853 402.131 232.781C405.895 228.623 411.484 226.295 419.118 226.17C421.358 223.761 423.341 220.335 423.79 218.158C418.58 217.355 413.857 217.43 409.63 218.362C409.624 218.352 402.2 219.55 397.065 224.672C391.308 230.414 387.69 237.636 386.239 247.953C385.45 253.548 381.323 260.258 377.9 264.385C371.511 271.555 364.583 274.584 363.379 274.991C359.482 276.304 355.506 275.883 352.81 275.28C348.064 273.979 336.612 269.815 330.291 266.107C331.129 267.656 346.786 292.373 346.786 292.373Z" fill="white"/>
<path fill-rule="evenodd" clip-rule="evenodd" d="M363.91 310.962C368.312 320.399 372.575 331.366 375.71 342.156C377.402 343.841 381.735 346.815 387.887 345.197L387.086 341.178C383.203 327.729 375.749 311.589 369.311 300.569L363.91 310.962Z" fill="white"/>
<path fill-rule="evenodd" clip-rule="evenodd" d="M371.257 296.828L371.193 296.948C378.432 308.047 385.62 324.279 390.173 340.037C394.697 344.372 401.231 345.791 407.927 345.857C408.038 345.355 407.262 342.078 407.007 341.088C401.299 321.28 396.349 306.319 383.979 295.304C382.87 295.355 378.783 295.968 374.713 294.929C373.527 295.58 372.379 296.207 371.257 296.828Z" fill="white"/>
<path fill-rule="evenodd" clip-rule="evenodd" d="M498.246 288.742C492.175 288.472 488.914 286.727 485.249 284.696C484.726 284.402 484.186 284.1 483.626 283.806C482.615 285.933 481.302 287.31 479.63 287.997C475.933 289.514 471.172 287.46 464.276 284.064C463.99 285.72 463.302 287.431 461.688 288.587C461.472 288.739 461.217 288.832 460.988 288.958C471.417 300.399 478.728 318.098 486.978 339.928C500.263 350.35 510.874 350.36 520.336 348.289C517.699 329.201 510.869 310.748 498.297 288.83C498.277 288.803 498.263 288.771 498.246 288.742Z" fill="white"/>
<path fill-rule="evenodd" clip-rule="evenodd" d="M488.11 418.253C489.272 418.635 492.668 419.302 493.795 419.427C495.004 419.557 503.186 420.432 505.521 419.118C505.322 417.949 504.377 413.793 504.206 413.038C495.167 373.74 487.814 365.386 479.408 351.793C469.825 351.692 463.252 348.585 457.389 344.928C457.858 346.615 458.443 351.121 458.443 351.121C458.443 351.121 454.945 351.109 454.237 351.084C462.224 365.371 467.837 384.707 470.694 405.387C478.234 412.852 483.414 416.702 488.11 418.253Z" fill="white"/>
<path fill-rule="evenodd" clip-rule="evenodd" d="M274.067 346.677L311.272 412.469H236.521L274.067 346.677ZM274.087 337.955L229.111 416.755H318.654L274.087 337.955Z" fill="white"/>
<path fill-rule="evenodd" clip-rule="evenodd" d="M403.143 284.47C410.738 290.003 413.855 289.445 415.671 289.067C416.865 288.82 419.122 287.46 418.337 285.218C416.371 280.907 408.098 271.955 402.139 266.583C401.305 268.119 400.428 271.44 396.703 275.437C398.81 278.905 401.683 282.341 403.143 284.47Z" fill="white"/>
<path fill-rule="evenodd" clip-rule="evenodd" d="M385.356 286.871C385.709 287.165 386.325 287.88 387.08 288.567C389.31 290.676 396.063 289.983 396.063 289.983C397.195 289.8 401.608 288.736 400.611 286.55C399.563 284.251 397.649 281.232 394.659 277.748C391.362 280.808 388.38 284.374 385.356 286.871Z" fill="white"/>
<path fill-rule="evenodd" clip-rule="evenodd" d="M382.869 288.893C381.922 289.599 378.587 291.917 378.257 292.101C381.646 292.782 384.714 292.143 385.447 291.51C384.749 290.883 383.34 289.295 382.869 288.893Z" fill="white"/>
<path fill-rule="evenodd" clip-rule="evenodd" d="M457.75 245.137C471.212 256.125 482.233 269.778 484.233 280.428C485.15 280.903 486.024 281.379 486.852 281.84C490.485 283.851 493.401 285.439 499.387 285.518C501.329 285.474 502.934 284.812 503.432 284.396C500.159 266.57 484.285 251.491 471.239 241.816C468.534 244.857 463.778 245.962 457.75 245.137Z" fill="white"/>
<path fill-rule="evenodd" clip-rule="evenodd" d="M450.74 240.067L451.7 240.382C457.893 242.446 465.157 243.216 468.519 239.892C453.37 229.164 437.312 221.822 426.985 218.888C426.462 221.344 424.842 224.265 422.969 226.683C431.54 228.477 441.434 233.474 450.74 240.067Z" fill="white"/>
<path fill-rule="evenodd" clip-rule="evenodd" d="M362.945 166.349C375.339 166.077 386.621 169.103 389.815 178.18C412.766 177.918 429.221 170.262 438.751 155.304C429.658 159.528 423.696 162.952 415.788 164.106C407.888 165.253 378.385 164.175 376.232 162.128C376.232 162.128 366.992 165.168 362.945 166.349Z" fill="white"/>
<path fill-rule="evenodd" clip-rule="evenodd" d="M230.904 116.415C234.706 116.54 237.895 113.57 238.023 109.789C238.082 108.078 237.48 106.519 236.474 105.292C234.935 106.294 233.102 106.877 231.134 106.877C229.156 106.877 227.318 106.289 225.774 105.284C224.864 106.395 224.292 107.796 224.238 109.335C224.114 113.114 227.104 116.29 230.904 116.415Z" fill="white"/>
<path fill-rule="evenodd" clip-rule="evenodd" d="M317.729 117.23C321.535 117.23 324.63 114.153 324.63 110.374C324.63 108.317 323.69 106.494 322.238 105.245C320.686 106.279 318.824 106.879 316.819 106.879C315.292 106.879 313.851 106.521 312.561 105.899C311.496 107.097 310.837 108.651 310.837 110.374C310.837 114.153 313.93 117.23 317.729 117.23Z" fill="white"/>
<path fill-rule="evenodd" clip-rule="evenodd" d="M294.627 110.389C294.627 113.739 297.375 116.464 300.752 116.464C304.124 116.464 306.869 113.739 306.869 110.389C306.869 107.032 304.124 104.305 300.752 104.305C297.375 104.305 294.627 107.032 294.627 110.389Z" fill="white"/>
<path fill-rule="evenodd" clip-rule="evenodd" d="M269.134 105.281C267.802 106.626 266.97 108.472 266.97 110.509C266.97 114.625 270.345 117.975 274.486 117.975C278.625 117.975 281.996 114.625 281.996 110.509C281.996 106.391 278.625 103.044 274.486 103.044C272.421 103.044 270.552 103.875 269.195 105.215C269.176 105.237 269.153 105.259 269.134 105.281Z" fill="white"/>
<path fill-rule="evenodd" clip-rule="evenodd" d="M231.135 91.0762C227.756 91.0762 225.006 93.8014 225.006 97.1534C225.006 100.508 227.756 103.239 231.135 103.239C234.511 103.239 237.254 100.508 237.254 97.1534C237.254 93.8014 234.511 91.0762 231.135 91.0762Z" fill="white"/>
<path fill-rule="evenodd" clip-rule="evenodd" d="M273.982 125.625V125.623H274.012H274.137H274.288C274.243 125.623 274.194 125.625 274.147 125.625C289.11 125.588 304.049 126.767 318.432 129.066L321.587 127.784C321.591 125.12 321.596 120.359 321.594 120.136C320.395 120.606 319.093 120.874 317.731 120.874C313.958 120.874 310.652 118.891 308.785 115.921C307.017 118.445 304.079 120.109 300.754 120.109C295.352 120.109 290.959 115.747 290.959 110.392C290.959 105.023 295.352 100.666 300.754 100.666C304.079 100.666 307.014 102.325 308.785 104.849C309.032 104.452 309.305 104.07 309.606 103.714C308.45 102.46 307.616 100.921 307.244 99.2003C298.68 99.4331 291.601 101.398 284.462 105.53C285.222 107.03 285.664 108.719 285.664 110.51C285.664 116.629 280.649 121.618 274.488 121.618C268.324 121.618 263.309 116.629 263.309 110.51C263.309 108.895 263.662 107.366 264.289 105.981C256.871 101.526 249.588 99.4355 240.701 99.198C240.42 100.497 239.872 101.69 239.13 102.744C239.843 103.57 240.42 104.504 240.849 105.516C242.546 102.619 245.691 100.666 249.294 100.666C254.694 100.666 259.087 105.023 259.087 110.392C259.087 115.747 254.694 120.109 249.294 120.109C245.38 120.109 242.001 117.801 240.442 114.487C238.604 117.903 234.934 120.189 230.786 120.053C228.625 119.981 227.369 119.364 226.34 119.065L226.338 127.541L229.925 128.999C244.161 126.753 259.22 125.598 273.982 125.625Z" fill="white"/>
<path fill-rule="evenodd" clip-rule="evenodd" d="M315.765 140.909C349.519 135.145 368.307 129.457 381.163 122.192C380.519 117.837 373.882 110.99 370.996 111.048C368.105 111.109 313.115 135.27 296.252 140.909C301.424 142.186 307.934 142.23 315.765 140.909Z" fill="white"/>
<path fill-rule="evenodd" clip-rule="evenodd" d="M353.314 149.921C352.917 155.798 350.26 163.485 347.693 168.664V171.783L382.089 125.427C378.192 127.569 373.481 129.63 367.933 131.615C365.038 139.753 359.231 148.691 353.314 149.921Z" fill="white"/>
<path fill-rule="evenodd" clip-rule="evenodd" d="M376.949 158.426C379.585 157.527 381.941 156.405 384.42 155.206C389.56 152.729 394.876 150.168 402.835 149.928C406.952 149.79 410.023 150.798 412.469 152.876C413.424 153.689 413.88 154.234 414.445 155.446C417.743 142.931 416.309 131.46 405.186 127.662C394.059 123.865 386.262 125.319 386.262 125.319L356.696 165.168C361.737 163.21 376.949 158.426 376.949 158.426Z" fill="white"/>
<path fill-rule="evenodd" clip-rule="evenodd" d="M255.422 110.389C255.422 107.032 252.679 104.305 249.295 104.305C245.926 104.305 243.183 107.032 243.183 110.389C243.183 113.739 245.926 116.464 249.295 116.464C252.679 116.464 255.422 113.739 255.422 110.389Z" fill="white"/>
<path fill-rule="evenodd" clip-rule="evenodd" d="M308.749 87.81L311.035 89.3244C312 88.6235 313.09 88.0946 314.269 87.7806L308.749 87.81Z" fill="white"/>
<path fill-rule="evenodd" clip-rule="evenodd" d="M233.679 87.7803C234.858 88.0959 235.956 88.6277 236.913 89.3286L239.205 87.8096L233.679 87.7803Z" fill="white"/>
<path fill-rule="evenodd" clip-rule="evenodd" d="M224.455 90.0666C225.632 88.9736 227.085 88.1624 228.698 87.753C228.698 87.753 225.528 87.8387 224.166 87.5915C222.795 87.3414 221.764 86.9297 221.764 86.9297C222.904 87.7386 223.831 88.8092 224.455 90.0666Z" fill="white"/>
<path fill-rule="evenodd" clip-rule="evenodd" d="M326.205 86.9185C326.205 86.9185 325.061 87.4405 323.697 87.7102C322.742 87.8964 320.063 87.9332 319.659 87.8545C321.114 88.2932 322.424 89.0705 323.509 90.0824C324.131 88.8129 325.063 87.7349 326.205 86.9185Z" fill="white"/>
<path fill-rule="evenodd" clip-rule="evenodd" d="M272.289 74.2318L273.946 95.3245L275.594 74.2318H272.289Z" fill="white"/>
<path fill-rule="evenodd" clip-rule="evenodd" d="M320.034 61.8234C320.515 61.625 320.996 61.4215 321.474 61.2329H321.449L320.606 60.3998L320.034 61.8234Z" fill="white"/>
<path fill-rule="evenodd" clip-rule="evenodd" d="M227.923 61.8234L227.321 60.3998L226.478 61.2329C226.961 61.4215 227.443 61.625 227.923 61.8234Z" fill="white"/>
<path fill-rule="evenodd" clip-rule="evenodd" d="M297.339 69.4717L300.737 72.8507H300.767C300.92 72.7357 301.076 72.6305 301.236 72.5201L305.311 62.8598L300.858 58.9904L297.339 69.4717Z" fill="white"/>
<path fill-rule="evenodd" clip-rule="evenodd" d="M276.398 51.0121H271.556L269.133 60.6966L271.556 70.3891H276.398L278.822 60.6966L276.398 51.0121Z" fill="white"/>
<path fill-rule="evenodd" clip-rule="evenodd" d="M215.701 52.6445L218.207 58.4964C219.827 58.9253 221.443 59.4175 223.066 59.9763L225.954 57.1337L221.732 47.079L215.701 52.6445Z" fill="white"/>
<path fill-rule="evenodd" clip-rule="evenodd" d="M314.371 49.5748L319.457 54.6309L323.621 44.7009L318.394 39.8782L314.371 49.5748Z" fill="white"/>
<path fill-rule="evenodd" clip-rule="evenodd" d="M329.713 58.501L332.229 52.6439L326.194 47.079L321.973 57.1314L324.869 59.9861C326.487 59.4272 328.105 58.9374 329.713 58.501Z" fill="white"/>
<path fill-rule="evenodd" clip-rule="evenodd" d="M277.385 99.7956C279.388 100.332 281.167 101.398 282.555 102.844C290.212 98.3812 297.976 96.1757 307.11 95.9159C307.31 94.3773 307.867 92.9388 308.706 91.713L297.89 84.5375C297.89 84.5375 318.789 85.2143 322.997 84.5375C327.202 83.8666 327.915 82.4597 327.915 82.4597L310.193 78.6173L339.86 59.8525C318.796 62.1661 296.893 76.1346 277.385 99.7956Z" fill="white"/>
<path fill-rule="evenodd" clip-rule="evenodd" d="M316.819 103.238C320.196 103.238 322.936 100.508 322.936 97.1534C322.936 93.8009 320.196 91.0762 316.819 91.0762C313.435 91.0762 310.687 93.8009 310.687 97.1534C310.687 100.508 313.435 103.238 316.819 103.238Z" fill="white"/>
<path fill-rule="evenodd" clip-rule="evenodd" d="M294.633 77.6334C295.79 76.6681 296.957 75.7487 298.126 74.8472L296.175 72.9407L294.633 77.6334Z" fill="white"/>
<path fill-rule="evenodd" clip-rule="evenodd" d="M251.751 72.9407L249.835 74.8443C250.999 75.7487 252.165 76.6675 253.325 77.6334L251.751 72.9407Z" fill="white"/>
<path fill-rule="evenodd" clip-rule="evenodd" d="M306.319 69.0734C307.525 68.3035 308.731 67.559 309.942 66.8552L307.925 65.1304L306.319 69.0734Z" fill="white"/>
<path fill-rule="evenodd" clip-rule="evenodd" d="M333.727 57.5493C334.79 57.3336 335.856 57.1106 336.914 56.9461L334.79 55.0126L333.727 57.5493Z" fill="white"/>
<path fill-rule="evenodd" clip-rule="evenodd" d="M224.302 44.7035L228.468 54.6306L233.555 49.5779L229.534 39.8779L224.302 44.7035Z" fill="white"/>
<path fill-rule="evenodd" clip-rule="evenodd" d="M229.839 57.8943L232.404 63.8859C233.245 64.2953 234.088 64.6995 234.929 65.1479L238.679 61.9351L234.912 52.8508L229.839 57.8943Z" fill="white"/>
<path fill-rule="evenodd" clip-rule="evenodd" d="M238.017 66.8558C239.225 67.559 240.429 68.3041 241.635 69.0734L240.002 65.1304L238.017 66.8558Z" fill="white"/>
<path fill-rule="evenodd" clip-rule="evenodd" d="M242.612 62.8578L246.681 72.4935C246.847 72.6113 247.019 72.7211 247.19 72.8511L250.591 69.4692L247.071 58.9907L242.612 62.8578Z" fill="white"/>
<path fill-rule="evenodd" clip-rule="evenodd" d="M237.762 78.6167L220.042 82.4568C220.042 82.4568 221.69 83.9028 224.961 84.5375C228.231 85.1769 250.07 84.5375 250.07 84.5375L239.242 91.7204C240.08 92.9479 240.63 94.379 240.83 95.9107C250.235 96.1803 258.19 98.4864 266.063 103.226C267.311 101.804 268.915 100.707 270.73 100.06C270.747 100.05 270.76 100.045 270.772 100.032C251.222 76.2203 229.233 62.173 208.094 59.8525L237.762 78.6167Z" fill="white"/>
<path fill-rule="evenodd" clip-rule="evenodd" d="M221.929 100.447C220.521 101.496 218.779 102.136 216.883 102.136C215.654 102.136 214.488 101.866 213.432 101.393C215.523 104.947 217.817 108.356 220.205 111.624C220.205 111.588 220.558 112.049 221.088 112.759C220.723 111.644 220.533 110.451 220.575 109.213C220.657 106.733 221.614 104.493 223.131 102.741C222.635 102.038 222.23 101.268 221.929 100.447Z" fill="white"/>
<path fill-rule="evenodd" clip-rule="evenodd" d="M251.628 140.91C251.176 140.761 250.683 140.589 250.177 140.408H250.173L250.158 140.405C231.858 133.982 180.86 111.302 176.435 110.946C171.887 110.579 167.439 117.838 166.791 122.192C179.646 129.458 198.39 135.21 232.14 140.972C239.391 141.925 246.591 142.319 251.628 140.91Z" fill="white"/>
<path fill-rule="evenodd" clip-rule="evenodd" d="M326.011 100.45C325.725 101.244 325.34 101.994 324.864 102.677C326.963 104.591 328.292 107.321 328.292 110.375C328.292 110.529 328.273 110.689 328.268 110.843C330.229 108.115 332.116 105.292 333.879 102.374C334.077 102.077 334.277 101.749 334.481 101.413C333.438 101.874 332.286 102.136 331.068 102.136C329.171 102.136 327.419 101.506 326.011 100.45Z" fill="white"/>
<path fill-rule="evenodd" clip-rule="evenodd" d="M331.069 88.9989C328.432 88.9989 326.291 91.1308 326.291 93.7532C326.291 96.3629 328.432 98.4925 331.069 98.4925C333.705 98.4925 335.851 96.3629 335.851 93.7532C335.851 91.1308 333.705 88.9989 331.069 88.9989Z" fill="white"/>
<path fill-rule="evenodd" clip-rule="evenodd" d="M216.883 98.4925C219.522 98.4925 221.673 96.3629 221.673 93.7532C221.673 91.1308 219.522 88.9989 216.883 88.9989C214.251 88.9989 212.105 91.1308 212.105 93.7532C212.105 96.3629 214.251 98.4925 216.883 98.4925Z" fill="white"/>
<path fill-rule="evenodd" clip-rule="evenodd" d="M339.316 91.9554C340.89 88.3085 342.17 84.5374 343.046 80.6357L337.356 88.159C338.31 89.225 338.995 90.5215 339.316 91.9554Z" fill="white"/>
<path fill-rule="evenodd" clip-rule="evenodd" d="M208.629 92.0037C208.945 90.5456 209.638 89.2324 210.6 88.1636L204.863 80.5765C205.746 84.5121 207.041 88.3229 208.629 92.0037Z" fill="white"/>
<path fill-rule="evenodd" clip-rule="evenodd" d="M278.52 93.4169C282.402 89.0082 290.729 80.9796 290.374 81.3033L283.843 74.819L278.49 93.4169H278.52Z" fill="white"/>
<path fill-rule="evenodd" clip-rule="evenodd" d="M269.433 93.4169L264.088 74.819L257.547 81.3033C261.582 84.9594 265.554 89.0082 269.433 93.4169Z" fill="white"/>
<path fill-rule="evenodd" clip-rule="evenodd" d="M343.878 76.1818C344.204 73.8492 344.383 71.4672 344.383 69.0484C344.45 68.2883 344.465 67.5805 344.514 66.84L335.415 74.0694L343.878 76.1818Z" fill="white"/>
<path fill-rule="evenodd" clip-rule="evenodd" d="M207.554 78.6859L213.227 86.1942C214.334 85.66 215.573 85.3588 216.883 85.3588C216.944 85.3588 212.978 80.9575 212.978 80.9575L229.102 76.9972L203.247 60.6611C203.235 61.2643 203.218 61.8599 203.226 62.4843L219.778 75.6323L207.554 78.6859Z" fill="white"/>
<path fill-rule="evenodd" clip-rule="evenodd" d="M203.414 66.8175C203.466 67.5649 203.475 68.2802 203.545 69.0472C203.545 71.4683 203.722 73.8532 204.048 76.1886L212.543 74.0688L203.414 66.8175Z" fill="white"/>
<path fill-rule="evenodd" clip-rule="evenodd" d="M256.74 77.4797L263.052 71.226L260.926 63.8252L254.355 70.3532L256.74 77.4797Z" fill="white"/>
<path fill-rule="evenodd" clip-rule="evenodd" d="M335.605 81.288C335.605 81.288 331.01 85.3558 331.069 85.3558C332.384 85.3558 333.62 85.6622 334.73 86.194L340.403 78.6852L328.178 75.6316L344.702 62.5066V62.4842C344.706 61.869 344.692 61.2762 344.679 60.6805L318.621 77.2248L335.605 81.288Z" fill="white"/>
<path fill-rule="evenodd" clip-rule="evenodd" d="M211.041 56.9456C212.102 57.11 213.167 57.3331 214.231 57.5487L213.138 55.0126L211.041 56.9456Z" fill="white"/>
<path fill-rule="evenodd" clip-rule="evenodd" d="M301.986 55.6235L306.633 59.6649L310.493 50.3501L305.437 45.3215L301.986 55.6235Z" fill="white"/>
<path fill-rule="evenodd" clip-rule="evenodd" d="M309.247 61.9351L313.009 65.1554C313.842 64.7138 314.681 64.3096 315.517 63.9003L318.087 57.8937L313.011 52.8508L309.247 61.9351Z" fill="white"/>
<path fill-rule="evenodd" clip-rule="evenodd" d="M298.164 56.6497L290.885 50.3298L288.036 60.2299L294.736 66.8862L298.164 56.6497Z" fill="white"/>
<path fill-rule="evenodd" clip-rule="evenodd" d="M293.573 70.3534L286.999 63.8248L284.873 71.2256L291.182 77.4799L293.573 70.3534Z" fill="white"/>
<path fill-rule="evenodd" clip-rule="evenodd" d="M253.192 66.8862L259.889 60.2305L257.042 50.3298L249.759 56.6503L253.192 66.8862Z" fill="white"/>
<path fill-rule="evenodd" clip-rule="evenodd" d="M237.432 50.3506L241.295 59.6655L245.944 55.6241L242.488 45.3215L237.432 50.3506Z" fill="white"/>
<path fill-rule="evenodd" clip-rule="evenodd" d="M266.924 55.9766L268.497 49.6786L264.827 44.1987L266.924 55.9766Z" fill="white"/>
<path fill-rule="evenodd" clip-rule="evenodd" d="M220.381 43.8619L215.367 31.9104C214.114 32.8959 212.932 33.9348 211.886 35.0744C211.003 36.0374 210.187 37.0545 209.442 38.1325L214.326 49.4591L220.381 43.8619Z" fill="white"/>
<path fill-rule="evenodd" clip-rule="evenodd" d="M211.762 51.8205L207.362 41.6185C205.228 45.7772 203.961 50.6786 203.468 56.3028C204.56 56.3344 205.65 56.3615 206.748 56.4471L211.762 51.8205Z" fill="white"/>
<path fill-rule="evenodd" clip-rule="evenodd" d="M248.635 53.2898L256.042 46.8544L252.69 35.1869L245.095 42.7349L248.635 53.2898Z" fill="white"/>
<path fill-rule="evenodd" clip-rule="evenodd" d="M276.804 47.7415L281.559 40.6419L279.332 34.0133H268.62L266.395 40.6419L271.153 47.7415H276.804Z" fill="white"/>
<path fill-rule="evenodd" clip-rule="evenodd" d="M281.034 55.9766L283.131 44.1987L279.458 49.6786L281.034 55.9766Z" fill="white"/>
<path fill-rule="evenodd" clip-rule="evenodd" d="M311.852 47.0734L315.82 37.5039L309.893 32.0338L306.6 41.8511L311.852 47.0734Z" fill="white"/>
<path fill-rule="evenodd" clip-rule="evenodd" d="M236.074 47.0734L241.325 41.8511L238.032 32.0338L232.105 37.5039L236.074 47.0734Z" fill="white"/>
<path fill-rule="evenodd" clip-rule="evenodd" d="M262.401 30.5797L263.756 38.172L265.509 32.9617L262.401 30.5797Z" fill="white"/>
<path fill-rule="evenodd" clip-rule="evenodd" d="M228.196 36.6512L224.182 26.9639C221.997 27.8389 219.952 28.8192 218.118 29.9634L222.954 41.4912L228.196 36.6512Z" fill="white"/>
<path fill-rule="evenodd" clip-rule="evenodd" d="M236.894 28.6266L235.31 23.9069C232.442 24.3996 229.741 25.0171 227.262 25.8111L230.769 34.2778L236.894 28.6266Z" fill="white"/>
<path fill-rule="evenodd" clip-rule="evenodd" d="M309.311 23.4207C307.87 23.2419 306.422 23.0654 304.893 22.9579L308.386 26.1805L309.311 23.4207Z" fill="white"/>
<path fill-rule="evenodd" clip-rule="evenodd" d="M243.031 22.9579C241.506 23.0631 240.056 23.2396 238.611 23.4213L239.541 26.1805L243.031 22.9579Z" fill="white"/>
<path fill-rule="evenodd" clip-rule="evenodd" d="M307.242 29.5849L299.837 22.7528C299.492 22.7476 299.179 22.7131 298.829 22.7108L296.276 31.5921L303.996 39.27L307.242 29.5849Z" fill="white"/>
<path fill-rule="evenodd" clip-rule="evenodd" d="M302.834 42.7349L295.24 35.1869L291.883 46.8515L299.292 53.2898L302.834 42.7349Z" fill="white"/>
<path fill-rule="evenodd" clip-rule="evenodd" d="M333.606 49.4566L338.486 38.1301C337.737 37.0544 336.923 36.035 336.042 35.0742C334.991 33.9347 333.815 32.8957 332.559 31.908L327.548 43.8595L333.606 49.4566Z" fill="white"/>
<path fill-rule="evenodd" clip-rule="evenodd" d="M341.182 56.4451H341.212C342.297 56.3594 343.382 56.3324 344.46 56.3002C343.964 50.676 342.701 45.7751 340.565 41.6188L336.165 51.8184L341.182 56.4451Z" fill="white"/>
<path fill-rule="evenodd" clip-rule="evenodd" d="M324.971 41.4912L329.808 29.9634C327.978 28.8192 325.928 27.8412 323.747 26.9639L319.732 36.6512L324.971 41.4912Z" fill="white"/>
<path fill-rule="evenodd" clip-rule="evenodd" d="M320.664 25.8111C318.188 25.0171 315.487 24.3996 312.619 23.9069L311.035 28.6266L317.154 34.2778L320.664 25.8111Z" fill="white"/>
<path fill-rule="evenodd" clip-rule="evenodd" d="M243.931 39.2672L251.652 31.5916L249.096 22.708C248.748 22.7109 248.435 22.7448 248.09 22.75L240.685 29.5821L243.931 39.2672Z" fill="white"/>
<path fill-rule="evenodd" clip-rule="evenodd" d="M257.984 5.72327L258.722 9.88189L261.506 5.72327H257.984Z" fill="white"/>
<path fill-rule="evenodd" clip-rule="evenodd" d="M267.934 16.6115H280.019L286.785 12.1315L282.498 5.72595H265.462L261.17 12.1315L267.934 16.6115Z" fill="white"/>
<path fill-rule="evenodd" clip-rule="evenodd" d="M259.644 15.0469L261.114 23.3227L264.75 18.4385L259.644 15.0469Z" fill="white"/>
<path fill-rule="evenodd" clip-rule="evenodd" d="M274.012 20.0242H273.945L268.033 20.1294L262.759 26.7091L268.001 30.7453H279.957L285.2 26.7091L279.929 20.1294L274.012 20.0242Z" fill="white"/>
<path fill-rule="evenodd" clip-rule="evenodd" d="M284.201 38.172L285.555 30.5797L282.449 32.9617L284.201 38.172Z" fill="white"/>
<path fill-rule="evenodd" clip-rule="evenodd" d="M286.838 23.3227L288.313 15.0469L283.256 18.4408L286.838 23.3227Z" fill="white"/>
<path fill-rule="evenodd" clip-rule="evenodd" d="M289.975 5.72327H286.447L289.235 9.88189L289.975 5.72327Z" fill="white"/>
</g>
<defs>
<clipPath id="clip0_33_974">
<rect width="532" height="557" fill="white"/>
</clipPath>
</defs>
</svg>
