<svg width="125" height="124" viewBox="0 0 125 124" fill="none" xmlns="http://www.w3.org/2000/svg">
<path d="M64.65 15.2767C67.2351 12.6916 71.4263 12.6916 74.0113 15.2767L122.723 63.9879C125.308 66.573 125.308 70.7642 122.723 73.3492L74.0113 122.06C71.4263 124.646 67.2351 124.646 64.65 122.06L15.9388 73.3492C13.3537 70.7642 13.3537 66.573 15.9388 63.9879L64.65 15.2767Z" fill="url(#paint0_linear_33_1217)"/>
<g opacity="0.3">
<path d="M57.9598 8.36932C60.5564 5.77273 64.7663 5.77273 67.3629 8.36932L116.292 57.298C118.888 59.8946 118.888 64.1045 116.292 66.7011L67.3629 115.63C64.7663 118.226 60.5564 118.226 57.9598 115.63L9.03109 66.7011C6.4345 64.1045 6.4345 59.8946 9.03109 57.298L57.9598 8.36932Z" fill="#E27410"/>
<path d="M57.9598 8.36932C60.5564 5.77273 64.7663 5.77273 67.3629 8.36932L116.292 57.298C118.888 59.8946 118.888 64.1045 116.292 66.7011L67.3629 115.63C64.7663 118.226 60.5564 118.226 57.9598 115.63L9.03109 66.7011C6.4345 64.1045 6.4345 59.8946 9.03109 57.298L57.9598 8.36932Z" fill="url(#paint1_linear_33_1217)"/>
</g>
<g opacity="0.15">
<path d="M51.3114 1.9383C53.8964 -0.64675 58.0876 -0.646753 60.6727 1.9383L109.384 50.6495C111.969 53.2346 111.969 57.4258 109.384 60.0108L60.6727 108.722C58.0876 111.307 53.8964 111.307 51.3114 108.722L2.60014 60.0108C0.0150843 57.4258 0.0150822 53.2346 2.60014 50.6495L51.3114 1.9383Z" fill="#E27410"/>
<path d="M51.3114 1.9383C53.8964 -0.64675 58.0876 -0.646753 60.6727 1.9383L109.384 50.6495C111.969 53.2346 111.969 57.4258 109.384 60.0108L60.6727 108.722C58.0876 111.307 53.8964 111.307 51.3114 108.722L2.60014 60.0108C0.0150843 57.4258 0.0150822 53.2346 2.60014 50.6495L51.3114 1.9383Z" fill="url(#paint2_linear_33_1217)"/>
</g>
<defs>
<linearGradient id="paint0_linear_33_1217" x1="14" y1="57.5102" x2="128.033" y2="57.5102" gradientUnits="userSpaceOnUse">
<stop stop-color="#014C88"/>
<stop offset="0.473958" stop-color="#015DA0"/>
<stop offset="1" stop-color="#026AB3"/>
</linearGradient>
<linearGradient id="paint1_linear_33_1217" x1="7.08365" y1="50.7914" x2="121.626" y2="50.7914" gradientUnits="userSpaceOnUse">
<stop stop-color="#014C88"/>
<stop offset="0.473958" stop-color="#015DA0"/>
<stop offset="1" stop-color="#026AB3"/>
</linearGradient>
<linearGradient id="paint2_linear_33_1217" x1="0.661347" y1="44.1718" x2="114.694" y2="44.1718" gradientUnits="userSpaceOnUse">
<stop stop-color="#014C88"/>
<stop offset="0.473958" stop-color="#015DA0"/>
<stop offset="1" stop-color="#026AB3"/>
</linearGradient>
</defs>
</svg>
